<svg width="76" height="76" viewBox="0 0 76 76" fill="none" xmlns="http://www.w3.org/2000/svg">
<rect y="0.5" width="76" height="75" rx="37.5" fill="black"/>
<path d="M56.1018 41.9086C55.7554 41.9086 55.4632 41.8509 55.2251 41.7356C54.9869 41.6139 54.8101 41.4602 54.6947 41.2744C54.5792 41.0823 54.5215 40.8837 54.5215 40.6787C54.5215 40.4673 54.5792 40.2848 54.6947 40.1311C54.8029 39.9709 54.9364 39.8556 55.0952 39.7852C55.3766 39.3368 55.6219 38.8852 55.8312 38.4304C56.0405 37.9692 56.2389 37.4728 56.4265 36.9412L58.0285 36.749C58.0646 37.5689 58.126 38.4561 58.2125 39.4105C58.2486 39.7948 58.2667 40.0734 58.2667 40.2464C58.2667 40.6371 58.1548 40.9574 57.9311 41.2072C57.7074 41.457 57.4296 41.6363 57.0977 41.7452C56.7729 41.8541 56.441 41.9086 56.1018 41.9086ZM55.7554 41.1495C56.0224 41.1495 56.2461 41.0791 56.4265 40.9381C56.607 40.7972 56.6972 40.5698 56.6972 40.256C56.6972 40.0638 56.6755 39.7948 56.6322 39.4489C56.56 38.7187 56.5131 38.2287 56.4915 37.9789C56.3183 38.4849 56.0261 39.0902 55.6147 39.7948C55.7807 39.8716 55.8637 39.9837 55.8637 40.1311C55.8637 40.2528 55.8168 40.3617 55.723 40.4577C55.6364 40.5538 55.5245 40.6019 55.3874 40.6019C55.2359 40.6019 55.1385 40.5602 55.0952 40.4769C55.0952 40.7075 55.1457 40.8773 55.2467 40.9862C55.355 41.0951 55.5245 41.1495 55.7554 41.1495Z" fill="#FFB6C1"/>
<path d="M52.2618 41.9081C51.7278 41.9081 51.3129 41.7864 51.017 41.543C50.7212 41.2932 50.5732 40.9057 50.5732 40.3804C50.5732 39.9385 50.6707 39.4517 50.8655 38.92C51.0603 38.3884 51.3778 37.9304 51.818 37.5461C52.2582 37.1553 52.8175 36.96 53.4958 36.96C54.2896 36.96 54.6864 37.2674 54.6864 37.8823C54.6864 38.241 54.571 38.5709 54.3401 38.872C54.1092 39.173 53.8025 39.4164 53.42 39.6022C53.0376 39.7815 52.6298 39.884 52.1969 39.9096C52.1824 40.1018 52.1752 40.2299 52.1752 40.294C52.1752 40.6078 52.2366 40.8224 52.3592 40.9377C52.4819 41.0466 52.6804 41.101 52.9546 41.101C53.3442 41.101 53.6762 41.021 53.9504 40.8608C54.2318 40.7007 54.5385 40.4573 54.8705 40.1306H55.2385C54.4375 41.3156 53.4453 41.9081 52.2618 41.9081ZM52.2835 39.4484C52.5505 39.4356 52.803 39.3524 53.0412 39.1986C53.2865 39.0449 53.4814 38.8495 53.6257 38.6125C53.7772 38.3755 53.853 38.1257 53.853 37.8631C53.853 37.6005 53.7628 37.4692 53.5824 37.4692C53.3226 37.4692 53.0664 37.671 52.8139 38.0745C52.5685 38.478 52.3917 38.936 52.2835 39.4484Z" fill="#FFB6C1"/>
<path d="M49.6355 36.5277C49.3973 36.5277 49.1953 36.454 49.0293 36.3067C48.8633 36.1594 48.7803 35.98 48.7803 35.7686C48.7803 35.5573 48.8633 35.3779 49.0293 35.2306C49.1953 35.0769 49.3973 35 49.6355 35C49.8736 35 50.0756 35.0769 50.2416 35.2306C50.4148 35.3779 50.5014 35.5573 50.5014 35.7686C50.5014 35.98 50.4148 36.1594 50.2416 36.3067C50.0756 36.454 49.8736 36.5277 49.6355 36.5277ZM48.8994 41.9082C48.553 41.9082 48.2716 41.8121 48.0551 41.62C47.8458 41.4278 47.7412 41.1395 47.7412 40.7552C47.7412 40.5951 47.7701 40.3869 47.8278 40.1307L48.5639 37.0465H50.1225L49.3432 40.3133C49.3143 40.4093 49.2999 40.5118 49.2999 40.6207C49.2999 40.7488 49.3324 40.8417 49.3973 40.8993C49.4695 40.9506 49.5849 40.9762 49.7437 40.9762C49.953 40.9762 50.1478 40.8993 50.3282 40.7456C50.5086 40.5855 50.6385 40.3805 50.7179 40.1307H51.1725C50.9055 40.8225 50.5627 41.2933 50.1442 41.5431C49.7257 41.7865 49.3107 41.9082 48.8994 41.9082Z" fill="#FFB6C1"/>
<path d="M43.4396 41.9083C43.0283 41.9083 42.6855 41.7834 42.4113 41.5336C42.1371 41.2838 42 40.893 42 40.3614C42 39.8874 42.1046 39.391 42.3139 38.8721C42.5304 38.3469 42.8479 37.9049 43.2664 37.5462C43.6922 37.1811 44.1973 36.9986 44.7818 36.9986C45.0777 36.9986 45.2978 37.0434 45.4421 37.1331C45.5864 37.2228 45.6586 37.3413 45.6586 37.4886V37.527L46.189 35.3172L47.791 35.125L46.5462 40.3134C46.5173 40.4094 46.5029 40.5119 46.5029 40.6208C46.5029 40.7489 46.5353 40.8418 46.6003 40.8994C46.6725 40.9507 46.7879 40.9763 46.9467 40.9763C47.1487 40.9763 47.3219 40.8994 47.4662 40.7457C47.6178 40.592 47.7368 40.387 47.8234 40.1308H48.278C47.8379 41.2774 47.1126 41.8506 46.1024 41.8506C45.8065 41.8506 45.5648 41.7802 45.3772 41.6393C45.1968 41.4983 45.0849 41.2934 45.0416 41.0243C44.854 41.2806 44.6267 41.4919 44.3597 41.6585C44.0999 41.825 43.7932 41.9083 43.4396 41.9083ZM44.1432 40.9763C44.3164 40.9763 44.4896 40.9058 44.6628 40.7649C44.8432 40.624 44.9658 40.4286 45.0308 40.1788V40.1308L45.5612 37.9306C45.4962 37.7064 45.3483 37.5943 45.1174 37.5943C44.8287 37.5943 44.5689 37.7448 44.338 38.0458C44.1071 38.3405 43.9267 38.6992 43.7968 39.122C43.6669 39.5383 43.602 39.9066 43.602 40.2269C43.602 40.5471 43.6525 40.7521 43.7535 40.8418C43.8618 40.9315 43.9917 40.9763 44.1432 40.9763Z" fill="#FFB6C1"/>
<path d="M38.9643 41.8889C38.4303 41.8889 38.0082 41.7672 37.6979 41.5238C37.3876 41.2804 37.2324 40.8961 37.2324 40.3708C37.2324 39.9353 37.3334 39.4517 37.5355 38.92C37.7376 38.3884 38.0623 37.9304 38.5097 37.5461C38.9571 37.1553 39.5199 36.96 40.1983 36.96C41.1219 36.96 41.5838 37.4724 41.5838 38.4973V38.5069C41.6054 38.5133 41.6451 38.5165 41.7028 38.5165C41.941 38.5165 42.2152 38.462 42.5255 38.3531C42.8358 38.2378 43.1172 38.1001 43.3698 37.94L43.4672 38.1994C43.2579 38.398 42.9837 38.5677 42.6445 38.7086C42.3126 38.8431 41.9482 38.9392 41.5513 38.9969C41.4936 39.5798 41.3456 40.089 41.1075 40.5246C40.8694 40.9601 40.5627 41.2964 40.1874 41.5334C39.8122 41.7704 39.4045 41.8889 38.9643 41.8889ZM39.3973 41.0242C39.5705 41.0242 39.7436 40.9377 39.9168 40.7648C40.09 40.5854 40.2416 40.3452 40.3714 40.0441C40.5013 39.7367 40.5951 39.3972 40.6529 39.0257C40.458 38.9873 40.3606 38.8527 40.3606 38.6222C40.3606 38.3595 40.4725 38.1866 40.6962 38.1033C40.6817 37.8919 40.6457 37.7478 40.5879 37.671C40.5302 37.5877 40.4292 37.5461 40.2849 37.5461C40.0467 37.5461 39.8158 37.6998 39.5921 38.0072C39.3684 38.3147 39.188 38.683 39.0509 39.1122C38.9138 39.5413 38.8452 39.9192 38.8452 40.2459C38.8452 40.5534 38.8849 40.7615 38.9643 40.8704C39.0437 40.9729 39.188 41.0242 39.3973 41.0242Z" fill="#FFB6C1"/>
<path d="M34.2084 41.8889C33.6744 41.8889 33.2523 41.7672 32.942 41.5238C32.6317 41.2804 32.4766 40.8961 32.4766 40.3708C32.4766 39.9353 32.5776 39.4517 32.7796 38.92C32.9817 38.3884 33.3064 37.9304 33.7538 37.5461C34.2012 37.1553 34.7641 36.96 35.4424 36.96C36.3661 36.96 36.8279 37.4724 36.8279 38.4973V38.5069C36.8495 38.5133 36.8892 38.5165 36.947 38.5165C37.1851 38.5165 37.4593 38.462 37.7696 38.3531C38.0799 38.2378 38.3613 38.1001 38.6139 37.94L38.7113 38.1994C38.502 38.398 38.2278 38.5677 37.8887 38.7086C37.5567 38.8431 37.1923 38.9392 36.7954 38.9969C36.7377 39.5798 36.5898 40.089 36.3516 40.5246C36.1135 40.9601 35.8068 41.2964 35.4316 41.5334C35.0563 41.7704 34.6486 41.8889 34.2084 41.8889ZM34.6414 41.0242C34.8146 41.0242 34.9878 40.9377 35.161 40.7648C35.3342 40.5854 35.4857 40.3452 35.6156 40.0441C35.7455 39.7367 35.8393 39.3972 35.897 39.0257C35.7022 38.9873 35.6048 38.8527 35.6048 38.6222C35.6048 38.3595 35.7166 38.1866 35.9403 38.1033C35.9259 37.8919 35.8898 37.7478 35.8321 37.671C35.7743 37.5877 35.6733 37.5461 35.529 37.5461C35.2909 37.5461 35.0599 37.6998 34.8362 38.0072C34.6125 38.3147 34.4321 38.683 34.295 39.1122C34.1579 39.5413 34.0894 39.9192 34.0894 40.2459C34.0894 40.5534 34.1291 40.7615 34.2084 40.8704C34.2878 40.9729 34.4321 41.0242 34.6414 41.0242Z" fill="#FFB6C1"/>
<path d="M17.7334 49.0004C17.7334 49.0004 48.5824 42.7552 53.4533 44.6768" stroke="#FFB6C1" stroke-width="6"/>
<path d="M24.5031 46.6547C23.3517 46.6547 22.4211 46.5032 21.7113 46.2002C21.0173 45.9052 20.6703 45.5145 20.6703 45.0281C20.6703 44.7251 20.8122 44.446 21.0962 44.1909C21.3801 43.9357 21.7665 43.7364 22.2555 43.5928C22.7444 43.4414 23.2807 43.3656 23.8643 43.3656C24.4637 43.3656 24.9448 43.4414 25.3075 43.5928C25.6861 43.7443 25.8754 43.9437 25.8754 44.1909C25.8754 44.3822 25.7886 44.5337 25.6151 44.6453C25.4732 44.5497 25.276 44.4739 25.0236 44.4181C24.787 44.3623 24.5347 44.3344 24.2665 44.3344C23.7933 44.3344 23.4069 44.4141 23.1072 44.5736C22.8075 44.7331 22.6577 44.9404 22.6577 45.1955C22.6577 45.4507 22.7996 45.658 23.0835 45.8175C23.3832 45.9769 23.7539 46.0567 24.1955 46.0567C24.7476 46.0567 25.2208 45.9331 25.6151 45.6859C26.0094 45.4387 26.3091 45.0719 26.5142 44.5855L27.6972 41.9423H27.6025C27.1766 42.2453 26.6561 42.4766 26.041 42.636C25.4416 42.7955 24.7791 42.8752 24.0536 42.8752C23.1388 42.8752 22.3343 42.7516 21.6403 42.5045C20.9463 42.2573 20.41 41.9065 20.0315 41.452C19.6687 40.9895 19.4873 40.4553 19.4873 39.8493C19.4873 38.9722 19.8659 38.1749 20.623 37.4572C21.3801 36.7317 22.4211 36.1616 23.746 35.7469C25.0709 35.3323 26.53 35.125 28.123 35.125C29.4637 35.125 30.5205 35.2725 31.2934 35.5675C32.082 35.8625 32.4764 36.2652 32.4764 36.7755C32.4764 37.1184 32.3108 37.3935 31.9795 37.6008C31.6483 37.8081 31.2145 37.9117 30.6783 37.9117C30.3786 37.9117 30.0946 37.8798 29.8265 37.8161C29.5741 37.7523 29.3612 37.6606 29.1877 37.541C29.4716 37.4453 29.7082 37.2938 29.8975 37.0865C30.1025 36.8712 30.2051 36.6559 30.2051 36.4406C30.2051 36.2014 30.0631 36.018 29.7792 35.8905C29.511 35.7549 29.1246 35.6871 28.6199 35.6871C27.705 35.6871 26.8218 35.8944 25.97 36.3091C25.1183 36.7157 24.4321 37.2499 23.9116 37.9117C23.3911 38.5735 23.1309 39.2672 23.1309 39.9928C23.1309 40.5908 23.3201 41.0493 23.6987 41.3682C24.0772 41.6792 24.6214 41.8347 25.3312 41.8347C26.1829 41.8347 26.9322 41.6074 27.5789 41.153C28.2413 40.6985 28.7697 40.0367 29.164 39.1676L31.9559 39.1795L30.2287 43.1982C29.724 44.3862 29.0063 45.2593 28.0757 45.8175C27.1609 46.3756 25.97 46.6547 24.5031 46.6547Z" fill="#FFB6C1"/>
<path d="M19.6587 56.1131C19.6804 56.0672 19.7131 55.9756 19.7567 55.8383C19.7852 55.7522 19.8069 55.7062 19.8219 55.7004C19.8531 55.667 19.8842 55.6327 19.9152 55.5974L19.9725 55.5136L20.0581 55.4203L20.1706 55.2825L20.2377 55.2299L20.2983 55.1722L20.359 55.1382L20.4352 55.0638L20.5823 54.9896C20.6731 54.9449 20.7299 54.9192 20.7527 54.9125C20.7985 54.9009 20.8384 54.8901 20.8726 54.88C20.9163 54.9139 20.947 54.9308 20.9647 54.9306C20.9666 54.9303 21.0133 54.9108 21.1049 54.8719C21.1124 54.8691 21.119 54.8672 21.1249 54.8665C21.1268 54.8663 21.1708 54.8717 21.2568 54.8827C21.2668 54.8834 21.2835 54.8834 21.307 54.8824C21.3422 54.88 21.3677 54.8798 21.3837 54.8818C21.4714 54.8434 21.5201 54.8237 21.5298 54.8225C21.5685 54.8177 21.606 54.8258 21.6421 54.847C21.6386 54.8966 21.6291 54.9302 21.6136 54.9479C21.5983 54.9675 21.5683 54.9869 21.5235 55.0062L21.516 55.0869C21.4577 55.1236 21.4199 55.1519 21.4027 55.1717C21.3798 55.1922 21.3635 55.2041 21.3541 55.2072C21.3541 55.2072 21.3393 55.2071 21.3097 55.2068C21.3039 55.2075 21.3 55.208 21.2981 55.2082L21.1942 55.227L21.1913 55.2273L21.1055 55.2261L21.0349 55.2289C20.9663 55.2157 20.9095 55.2099 20.8644 55.2116C20.8509 55.2133 20.8294 55.2149 20.8001 55.2166C20.7647 55.217 20.7354 55.2186 20.7121 55.2215C20.6966 55.2234 20.6264 55.2439 20.5014 55.283C20.4345 55.2991 20.391 55.3133 20.3709 55.3256C20.3513 55.3418 20.3145 55.3847 20.2603 55.4544C20.247 55.4738 20.2147 55.4905 20.1633 55.5048C20.1631 55.55 20.1562 55.5804 20.1424 55.5959C20.125 55.6138 20.0915 55.6297 20.0421 55.6437C20.0487 55.6645 20.0531 55.6837 20.0553 55.7011C20.0563 55.7089 20.0354 55.7537 19.9926 55.8358C19.9801 55.8609 19.9873 55.9801 20.0143 56.1932C20.0202 56.2397 20.0554 56.323 20.1198 56.4429C20.0957 56.501 20.0842 56.5428 20.0855 56.5682C20.0983 56.5764 20.1328 56.584 20.1888 56.5909C20.2878 56.6888 20.3521 56.7616 20.3818 56.8091L20.4527 56.8092C20.4867 56.8444 20.509 56.8652 20.5197 56.8718L20.6394 56.9308L20.7252 56.9792C20.8026 56.9992 20.8502 57.0101 20.8682 57.0118C20.8803 57.0142 20.9254 57.0126 21.0034 57.0069L21.1139 57.0169L21.2164 57.0101L21.2931 57.0095C21.3314 57.0008 21.3925 56.9707 21.4766 56.919L21.5307 56.927C21.554 56.9084 21.5691 56.8957 21.5761 56.889C21.5906 56.8793 21.6241 56.8486 21.6767 56.7969C21.7263 56.7848 21.7683 56.759 21.8027 56.7193C21.8278 56.6847 21.8574 56.6545 21.8916 56.6286C21.9059 56.617 21.9205 56.6005 21.9355 56.5789C21.9751 56.5189 22.0056 56.4876 22.0269 56.485C22.0424 56.4831 22.0592 56.4909 22.0771 56.5083C22.0678 56.5902 22.0666 56.6582 22.0735 56.7125C22.0394 56.7541 22.0123 56.7968 21.9923 56.8406C21.9513 56.8594 21.8972 56.8985 21.83 56.958C21.7997 56.9676 21.7731 56.9827 21.7501 57.0033C21.7164 57.033 21.687 57.0494 21.6618 57.0526L21.5622 57.0589L21.5593 57.0593C21.4593 57.0933 21.3999 57.1144 21.3813 57.1226C21.3757 57.1253 21.3518 57.1459 21.3094 57.1846C21.3005 57.1916 21.2921 57.1956 21.2843 57.1966L20.9903 57.2299C20.9787 57.2313 20.9509 57.2377 20.9071 57.249C20.8566 57.2238 20.8108 57.2117 20.7696 57.2129C20.7146 57.2138 20.6339 57.206 20.5275 57.1896L20.4566 57.1895L20.3719 57.1734C20.318 57.1682 20.2841 57.1646 20.27 57.1624C20.2577 57.158 20.2417 57.1481 20.222 57.1329C20.1087 57.0465 20.0509 56.9946 20.0487 56.9771C20.0467 56.9616 20.0473 56.9429 20.0504 56.9208C20.0478 56.9153 20.0464 56.9125 20.0464 56.9125L19.9498 56.9421C19.9498 56.9421 19.9476 56.9404 19.9432 56.937C19.8992 56.8696 19.8683 56.8272 19.8503 56.8098C19.8136 56.769 19.7926 56.7352 19.7872 56.7083C19.7838 56.6969 19.7755 56.6625 19.7624 56.6051L19.7613 56.5964L19.7655 56.5132C19.7063 56.4812 19.6757 56.4574 19.6737 56.4419C19.673 56.4361 19.7149 56.4014 19.7994 56.3378C19.8461 56.3026 19.8657 56.2558 19.8584 56.1977C19.8513 56.1415 19.7847 56.1133 19.6587 56.1131ZM22.4703 56.1617C22.4541 56.0338 22.45 55.9398 22.4582 55.8798C22.4673 55.8275 22.4847 55.7476 22.5105 55.6401C22.5713 55.483 22.6063 55.3941 22.6154 55.3733C22.6249 55.3544 22.6651 55.315 22.7363 55.255C22.738 55.2529 22.7488 55.222 22.7689 55.1625C22.7824 55.1293 22.7946 55.1091 22.8055 55.1019C22.8246 55.0818 22.8942 55.0329 23.0143 54.9551C23.0525 54.9307 23.0944 54.8881 23.1398 54.8274C23.1466 54.8187 23.2571 54.7588 23.4714 54.6477C23.5821 54.5888 23.7489 54.5456 23.9718 54.5181C24.0164 54.5126 24.0755 54.5131 24.1492 54.5198L24.1686 54.5794C24.1972 54.5877 24.2222 54.5984 24.2435 54.6115C24.2713 54.5982 24.2914 54.5701 24.3037 54.5273C24.4133 54.5374 24.5112 54.5646 24.5976 54.6091C24.6623 54.6385 24.6992 54.6575 24.7082 54.6663C24.7128 54.6716 24.7365 54.7031 24.7792 54.7608C24.8256 54.8161 24.8954 54.839 24.9887 54.8294C25.0451 54.9012 25.0814 54.9548 25.0977 54.9901C25.1159 55.0253 25.1364 55.0857 25.1591 55.1715C25.182 55.2592 25.1996 55.3279 25.2118 55.3775L25.1652 55.3833L25.1697 55.4181L25.12 55.4922C25.1319 55.5241 25.163 55.5518 25.2132 55.5751C25.2182 55.6611 25.2197 55.7199 25.2178 55.7517C25.2157 55.7657 25.2054 55.8014 25.1871 55.8588C25.1368 56.0362 25.1 56.15 25.0768 56.2C24.9898 56.3367 24.9054 56.4239 24.8235 56.4616L24.6764 56.5594L24.537 56.6475C24.4649 56.6997 24.4223 56.7285 24.4092 56.7341C24.3959 56.7377 24.3026 56.7551 24.1294 56.7863L23.9313 56.8551L23.7249 56.8805L23.6333 56.9037C23.4591 56.8957 23.3505 56.8933 23.3076 56.8966C23.2765 56.869 23.2538 56.8531 23.2395 56.849C23.2354 56.8475 23.1968 56.8454 23.1236 56.8426C23.0838 56.8396 23.002 56.8074 22.878 56.746C22.8594 56.7384 22.822 56.7234 22.766 56.7008C22.7499 56.6673 22.7391 56.6441 22.7335 56.631C22.7231 56.6106 22.7135 56.5971 22.7047 56.5903C22.7028 56.5905 22.6807 56.5794 22.6385 56.5571C22.6366 56.5573 22.6287 56.5495 22.6148 56.5335C22.5636 56.4709 22.5337 56.4057 22.5251 56.3379C22.5209 56.305 22.5373 56.2714 22.5744 56.2374C22.553 56.2085 22.5197 56.187 22.4746 56.1729L22.4703 56.1617ZM22.7827 56.064L22.7864 56.0931L22.8159 56.116C22.8331 56.0962 22.8512 56.0841 22.8704 56.0798C22.8942 56.1438 22.9142 56.1925 22.9302 56.2259C22.9426 56.246 23.0037 56.3241 23.1135 56.4601C23.1159 56.4637 23.1176 56.4694 23.1186 56.4772C23.1208 56.4946 23.1147 56.5239 23.1002 56.5651C23.1114 56.5912 23.1394 56.6025 23.1842 56.599C23.2012 56.5772 23.2164 56.5655 23.23 56.5638C23.2416 56.5624 23.3321 56.5925 23.5013 56.6543C23.5733 56.6788 23.6442 56.6868 23.714 56.6782L23.8856 56.657L23.9754 56.6666C24.0134 56.6718 24.046 56.6727 24.0732 56.6693C24.1178 56.6638 24.1673 56.6508 24.2218 56.6303C24.2574 56.6161 24.3092 56.5979 24.3773 56.5757C24.3959 56.5675 24.4566 56.5177 24.5592 56.4263C24.6316 56.3918 24.672 56.3691 24.6805 56.3582C24.6921 56.341 24.7217 56.2793 24.7692 56.1731L24.8235 56.0188C24.8661 55.9663 24.8905 55.9338 24.8968 55.9212C24.9028 55.9067 24.9043 55.8878 24.9014 55.8645C24.8645 55.8218 24.846 55.7926 24.846 55.7769L24.8456 55.774L24.8499 55.7144C24.8425 55.6248 24.8449 55.5507 24.8572 55.4921C24.837 55.4572 24.8112 55.4014 24.7798 55.3246L24.7141 55.1792C24.7078 55.1603 24.6999 55.1209 24.6903 55.0611L24.6772 55.0509L24.6074 55.0595C24.5809 55.0215 24.5296 54.9658 24.4534 54.8926C24.4085 54.8489 24.3828 54.8255 24.3765 54.8223C24.3719 54.817 24.3523 54.8096 24.3176 54.8001C24.289 54.7918 24.2381 54.7784 24.1649 54.7599C24.1369 54.6945 24.1016 54.6644 24.0589 54.6697C24.0473 54.6711 24.0185 54.6845 23.9725 54.7099C23.9104 54.7018 23.8755 54.6982 23.8678 54.6992C23.767 54.7116 23.7013 54.7217 23.6708 54.7294C23.6381 54.7354 23.5905 54.7639 23.5281 54.8149L23.4615 54.7788C23.4373 54.8212 23.418 54.8472 23.4034 54.8568L23.2865 54.9362L23.2691 54.962L22.9574 55.2986L22.9338 55.3222C22.9368 55.3769 22.9353 55.4115 22.9293 55.4261L22.884 55.535C22.8715 55.5916 22.853 55.6401 22.8286 55.6805C22.8325 55.6958 22.8352 55.7092 22.8367 55.7209C22.8423 55.7654 22.813 55.8055 22.7485 55.841C22.7493 55.8468 22.7599 55.8681 22.7803 55.9049C22.8373 55.9353 22.8665 55.9563 22.868 55.9679C22.8707 55.9892 22.8423 56.0213 22.7827 56.064ZM25.7964 54.5851C25.8034 54.5154 25.8462 54.4569 25.9248 54.4098C26.0049 54.3271 26.0663 54.2832 26.1089 54.2779C26.1535 54.2724 26.1831 54.2805 26.1977 54.3024C26.2023 54.3077 26.2123 54.3635 26.2278 54.4699C26.2312 54.497 26.2601 54.5465 26.3145 54.6185C26.3795 54.5102 26.419 54.4561 26.4328 54.4564L26.5264 54.3799C26.5959 54.3063 26.6412 54.2683 26.6626 54.2656C26.6878 54.2625 26.7157 54.2807 26.7463 54.3202C26.8431 54.2296 26.9438 54.1778 27.0485 54.1649C27.0698 54.1622 27.0886 54.1629 27.1048 54.1668C27.1451 54.1736 27.1652 54.177 27.1652 54.177C27.2373 54.1406 27.2812 54.1214 27.2967 54.1195C27.318 54.1168 27.3736 54.1208 27.4636 54.1313C27.5174 54.1365 27.5668 54.1383 27.6119 54.1366C27.6432 54.1662 27.6648 54.1813 27.6767 54.1818L27.745 54.1852C27.7964 54.1867 27.8624 54.2336 27.943 54.326C27.9918 54.3849 28.0311 54.5238 28.0608 54.7425C28.0142 54.7482 27.9679 54.7628 27.9216 54.7862C27.8754 54.8096 27.8532 54.8291 27.8552 54.8446C27.8554 54.8465 27.9249 54.8744 28.0636 54.9281C28.0801 54.9339 28.0903 54.9523 28.0942 54.9833C28.0984 55.0163 28.0875 55.0777 28.0615 55.1675C28.06 55.1716 28.0598 55.1775 28.0608 55.1853C28.0637 55.2085 28.088 55.237 28.1336 55.2707C28.133 55.3121 28.1345 55.3474 28.1382 55.3764C28.1406 55.3958 28.1614 55.4434 28.2006 55.5193L28.2266 55.6784L28.253 55.8168L28.2598 55.94C28.2622 55.9594 28.2765 55.994 28.3025 56.0439C28.2551 56.0892 28.2214 56.1189 28.2016 56.1331C28.1926 56.1402 28.1514 56.1639 28.0777 56.2045C28.0632 56.2142 28.024 56.2466 27.9601 56.3017C27.8987 56.2522 27.8656 56.2081 27.8607 56.1693C27.8589 56.1558 27.8668 56.078 27.8843 55.9362C27.885 55.9262 27.8841 55.9037 27.8816 55.8686C27.8813 55.8509 27.8805 55.8363 27.879 55.8246L27.9346 55.7971C28.0298 55.7716 28.0777 55.7539 28.0784 55.7439C28.0784 55.7439 28.0669 55.7385 28.0439 55.7275C27.9937 55.7042 27.9178 55.688 27.8162 55.6789C27.8173 55.5941 27.8254 55.542 27.8407 55.5224L27.9176 55.4302C27.9585 55.3799 27.9766 55.3364 27.9719 55.2995C27.9709 55.2918 27.9034 55.2716 27.7693 55.2389L27.7648 55.1332L27.7307 54.981C27.7305 54.979 27.7324 54.9709 27.7365 54.9567C27.7418 54.9363 27.746 54.9073 27.7491 54.8695C27.7136 54.8384 27.6952 54.8171 27.6937 54.8055L27.6782 54.6598C27.6757 54.6404 27.6569 54.6162 27.6217 54.5871C27.5865 54.558 27.5668 54.5269 27.5627 54.494L27.5459 54.4784C27.4977 54.4705 27.4702 54.4631 27.4634 54.4561L27.3643 54.3266C27.3456 54.3033 27.3265 54.2929 27.3071 54.2953C27.2742 54.2994 27.2369 54.3236 27.1953 54.3681C27.1314 54.439 27.0714 54.4779 27.0152 54.4848C27.0055 54.486 26.9648 54.4832 26.893 54.4763L26.8448 54.5383L26.8466 54.5529C26.7936 54.461 26.7468 54.4176 26.7061 54.4226C26.7041 54.4229 26.694 54.428 26.6756 54.4382C26.6502 54.4551 26.6215 54.4695 26.5895 54.4813C26.5503 54.4979 26.5012 54.5306 26.4424 54.5791C26.3541 54.6432 26.3039 54.6897 26.2918 54.7188C26.2667 54.7691 26.2569 54.8165 26.2626 54.8611C26.2628 54.863 26.2726 54.9248 26.292 55.0464L26.2931 55.0551L26.2935 55.058C26.2979 55.0929 26.2929 55.1161 26.2787 55.1277L26.16 55.2398C26.1476 55.2512 26.1421 55.2617 26.1433 55.2714C26.1458 55.2908 26.1657 55.308 26.203 55.3231C26.2857 55.3542 26.3336 55.3748 26.3467 55.385C26.3579 55.3954 26.3651 55.4133 26.3682 55.4384C26.369 55.4443 26.3695 55.4639 26.3698 55.4973L26.4029 55.7117C26.4043 55.7233 26.3906 55.7545 26.3616 55.8053C26.3584 55.8116 26.3579 55.8225 26.3598 55.838C26.3642 55.8729 26.3893 55.9072 26.4349 55.9409L26.4273 55.9507C26.437 55.9967 26.4429 56.0275 26.4449 56.043C26.4671 56.1563 26.4938 56.2426 26.5249 56.3017C26.5107 56.3448 26.4944 56.3714 26.476 56.3816C26.4687 56.3864 26.4375 56.3962 26.3822 56.4109C26.3725 56.412 26.3596 56.4186 26.3434 56.4304C26.3213 56.443 26.3066 56.4507 26.2991 56.4536C26.2857 56.4572 26.2729 56.4726 26.2606 56.4997C26.248 56.5248 26.2272 56.5392 26.1981 56.5428C26.1865 56.5442 26.1673 56.5328 26.1407 56.5086C26.1232 56.495 26.1133 56.4795 26.1111 56.462C26.1092 56.4465 26.1089 56.4288 26.1103 56.409C26.1165 56.3492 26.119 56.3144 26.1178 56.3048L26.0927 56.0835C26.103 56.0252 26.1076 55.9911 26.1063 55.9815C26.1039 55.9621 26.097 55.9393 26.0859 55.9131C26.0712 55.8756 26.0631 55.85 26.0614 55.8365C26.0604 55.8287 26.0599 55.8091 26.0598 55.7776C26.0593 55.758 26.0582 55.7414 26.0565 55.7278C26.0533 55.7027 26.0476 55.666 26.0396 55.6178C26.0347 55.5947 26.0308 55.5716 26.0278 55.5484C26.0246 55.5232 26.0273 55.4904 26.036 55.4499L26.1126 55.4021C26.1065 55.3851 26.098 55.3724 26.0871 55.3639C26.0747 55.3596 26.0431 55.3585 25.9922 55.3609C25.9856 55.3243 25.9808 55.2944 25.9779 55.2711C25.9757 55.2537 25.9759 55.2242 25.9785 55.1825C25.9792 55.1726 25.9787 55.1608 25.977 55.1473C25.9713 55.1027 25.9502 55.0217 25.9137 54.9042L25.9758 54.8581C25.9321 54.8084 25.9076 54.779 25.9025 54.7698C25.8979 54.7644 25.8912 54.7426 25.8824 54.7044C25.8766 54.6736 25.8479 54.6338 25.7964 54.5851ZM28.8444 54.0288L28.9541 53.9385C28.9518 53.9053 28.9503 53.8622 28.9495 53.8092L28.9097 53.5189C28.9031 53.4666 28.9145 53.4012 28.9439 53.3228C28.9017 53.3005 28.8735 53.2794 28.8591 53.2595C28.8545 53.2541 28.839 53.1547 28.8125 52.9612L28.783 52.7523L28.7621 52.6102C28.7574 52.5734 28.7668 52.5309 28.7902 52.4828C28.832 52.393 28.852 52.3413 28.8503 52.3278C28.8488 52.3161 28.8461 52.3027 28.8422 52.2874L28.796 52.2725C28.7917 52.1451 28.838 51.9977 28.9349 51.8303C28.9661 51.7654 29.0023 51.7098 29.0437 51.6633C29.1199 51.5811 29.1754 51.5221 29.2102 51.4863C29.2402 51.459 29.3248 51.3964 29.464 51.2985L29.5196 51.2474L29.6053 51.225C29.7049 51.1871 29.7566 51.168 29.7605 51.1675C29.7663 51.1668 29.7984 51.1717 29.8568 51.1822C29.8689 51.1846 29.8818 51.185 29.8953 51.1833C29.9089 51.1816 29.9242 51.1778 29.9411 51.1718C29.9772 51.1614 30.0001 51.1556 30.0098 51.1544C30.0854 51.1451 30.1552 51.168 30.2193 51.223L30.292 51.2141C30.2942 51.2472 30.2903 51.2704 30.2801 51.2834C30.2787 51.2875 30.2606 51.3153 30.2257 51.3669C30.2004 51.4153 30.1842 51.4429 30.1772 51.4496C30.1474 51.4789 30.0984 51.5115 30.0301 51.5475C29.9845 51.5295 29.9149 51.5007 29.8213 51.4611C29.7442 51.4273 29.6756 51.4141 29.6155 51.4215C29.5593 51.4285 29.4758 51.4693 29.3652 51.5439C29.3199 51.5751 29.2881 51.6115 29.2698 51.6531C29.2263 51.7451 29.1894 51.8736 29.1592 52.0387L29.1353 52.1066L29.1149 52.2715C29.0876 52.3359 29.0748 52.3748 29.0765 52.3884C29.0792 52.4097 29.1007 52.4238 29.1409 52.4306C29.132 52.4691 29.1302 52.5087 29.1353 52.5494C29.1375 52.5668 29.1423 52.6125 29.1497 52.6864L29.1799 52.9011C29.1799 52.9168 29.167 52.9627 29.1412 53.0387C29.1383 53.0469 29.1387 53.0656 29.1424 53.0946C29.1463 53.1256 29.1686 53.1691 29.2092 53.2251C29.2211 53.2414 29.2442 53.3851 29.2786 53.6564C29.2828 53.6893 29.2592 53.7365 29.2079 53.7979L29.2109 53.8212C29.2305 53.8365 29.2544 53.8463 29.2825 53.8507C29.3189 53.858 29.3469 53.9077 29.3664 53.9998C29.4232 54.0439 29.4616 54.0677 29.4818 54.0711L29.6141 54.0902L29.7886 54.1159L29.9822 54.0123L30.1915 53.9393C30.2624 53.8774 30.3102 53.8429 30.3349 53.836C30.3499 53.8302 30.3862 53.8208 30.4436 53.8078C30.4877 53.8456 30.5129 53.8809 30.519 53.9136C30.4169 53.9931 30.3544 54.0441 30.3317 54.0666C30.3087 54.0872 30.2833 54.1198 30.2555 54.1646C30.2456 54.1796 30.2338 54.1879 30.2203 54.1896C30.199 54.1922 30.165 54.1885 30.1185 54.1785C30.0821 54.1712 30.0445 54.1699 30.0058 54.1747C29.9767 54.1783 29.9242 54.1917 29.8484 54.2148C29.8123 54.2252 29.7807 54.232 29.7536 54.2354C29.7071 54.2411 29.65 54.2413 29.5824 54.2358C29.5007 54.2282 29.4531 54.2252 29.4395 54.2269C29.4201 54.2293 29.4012 54.2434 29.3828 54.2693C29.3642 54.2933 29.358 54.3137 29.364 54.3307L29.4064 54.4553C29.4421 54.6438 29.46 54.738 29.46 54.738C29.4612 54.7477 29.4581 54.7619 29.4506 54.7805C29.4116 54.7991 29.3939 54.8229 29.3976 54.852C29.4023 54.8888 29.4279 54.9201 29.4745 54.9458C29.485 54.9976 29.4922 55.0312 29.4961 55.0465C29.5333 55.2308 29.5638 55.3549 29.5876 55.4189L29.5622 55.4516L29.5113 55.446L29.4678 55.4986C29.495 55.5268 29.514 55.5451 29.5249 55.5536C29.565 55.59 29.5849 55.6151 29.5847 55.6289L29.5851 55.6318L29.5881 55.7258L29.5892 55.7346C29.5917 55.7539 29.6044 55.7996 29.6273 55.8716L29.5866 55.9002L29.5951 55.967C29.5413 55.9934 29.4717 56.0344 29.3863 56.0902C29.3756 56.0994 29.3389 56.1128 29.2762 56.1304L29.274 56.1129C29.2507 56.1316 29.2323 56.1417 29.2188 56.1434C29.2052 56.1451 29.1836 56.1379 29.154 56.1218C29.1603 56.0935 29.1635 56.0567 29.1636 56.0114L29.1668 55.9432L29.1707 55.8571C29.1884 55.7644 29.195 55.6996 29.1903 55.6628C29.1879 55.6434 29.1799 55.5883 29.1664 55.4975C29.2051 55.4612 29.2225 55.4276 29.2186 55.3966C29.2147 55.3656 29.2013 55.322 29.1784 55.2657C29.1494 55.1926 29.1332 55.1424 29.1298 55.1153L29.1209 55.0219L29.0575 54.522C29.0511 54.4559 29.0563 54.4189 29.073 54.4109C29.1231 54.387 29.157 54.3671 29.1747 54.3511L29.1695 54.3104L29.14 54.2875C29.1214 54.2957 29.1043 54.3008 29.0888 54.3027C29.0675 54.3053 29.0534 54.3031 29.0466 54.2961L28.9308 54.1746L28.7854 54.1689C28.7413 54.1625 28.7173 54.1596 28.7134 54.1601C28.6649 54.1661 28.598 54.2284 28.5127 54.3472C28.5013 54.3348 28.4947 54.3219 28.493 54.3083C28.4913 54.2948 28.5192 54.2352 28.5767 54.1297C28.6139 54.0661 28.6528 54.0318 28.6936 54.0267C28.7149 54.0241 28.7652 54.0248 28.8444 54.0288ZM32.556 53.5588L32.6417 53.4892C32.6752 53.5205 32.6983 53.5403 32.7112 53.5485C32.7156 53.5519 32.7371 53.5591 32.7759 53.5701C32.7965 53.5774 32.8902 53.6485 33.0569 53.7833C33.1096 53.826 33.1473 53.8676 33.1702 53.9081C33.1904 53.943 33.2125 53.9855 33.2366 54.0357C33.2516 54.0614 33.2696 54.0946 33.2905 54.1353L33.2728 54.1582C33.251 54.1569 33.2208 54.1518 33.1822 54.1428L33.0769 54.1971L32.9758 54.1919L32.8915 54.2259C32.7606 54.1555 32.6922 54.1206 32.6863 54.1213C32.6747 54.1228 32.6342 54.1681 32.5648 54.2574C32.4378 54.2494 32.3704 54.2459 32.3626 54.2469C32.3316 54.2507 32.2952 54.2582 32.2533 54.2692L32.2372 54.2594C32.2067 54.2671 32.1226 54.2795 31.985 54.2965L31.8789 54.3214L31.7466 54.3495L31.6129 54.3896L31.4904 54.4018C31.3824 54.4505 31.3084 54.4803 31.2685 54.4912C31.2671 54.5582 31.2632 54.605 31.2567 54.6314C31.2488 54.6619 31.2296 54.6967 31.1991 54.7359C31.2665 54.7709 31.3033 54.7968 31.3094 54.8138C31.3445 54.9354 31.3734 55.0164 31.3963 55.0569L31.4523 55.0795L31.4514 55.1889L31.5445 55.201C31.5739 55.278 31.6059 55.3282 31.6403 55.3515C31.6726 55.3731 31.7233 55.3846 31.7924 55.3859C31.8097 55.4447 31.8297 55.4787 31.8525 55.4877C31.8695 55.4974 31.9054 55.5008 31.9601 55.498L32.0191 55.5675C32.04 55.561 32.0581 55.5567 32.0736 55.5548C32.0853 55.5534 32.1465 55.5704 32.2573 55.606C32.282 55.6147 32.308 55.6174 32.3351 55.6141C32.3603 55.611 32.4083 55.5932 32.479 55.5609L32.6625 55.5176L32.7998 55.4593C32.8672 55.447 32.912 55.4356 32.9343 55.425C32.9655 55.4074 33.0213 55.366 33.1016 55.301C33.1803 55.2382 33.2252 55.1962 33.2363 55.1752C33.266 55.1302 33.2931 55.0796 33.3175 55.0235C33.33 54.9983 33.3557 54.9833 33.3945 54.9785C33.4119 54.9764 33.4387 54.9859 33.4749 55.007C33.4701 55.0784 33.4633 55.1255 33.4544 55.1482C33.3904 55.2959 33.3506 55.3933 33.3349 55.4405C33.3082 55.432 33.2862 55.4288 33.2687 55.4309C33.2571 55.4324 33.2276 55.4557 33.1801 55.5009C33.1482 55.5285 33.1063 55.5474 33.0544 55.5577C32.9384 55.6055 32.8575 55.6352 32.8118 55.6467C32.7333 55.6643 32.6837 55.6773 32.6631 55.6857C32.6055 55.7125 32.5757 55.7261 32.5738 55.7263L32.3989 55.7213L32.2994 55.7513L32.2503 55.7603C32.2045 55.7719 32.169 55.7792 32.1438 55.7823C32.1186 55.7854 32.047 55.7874 31.929 55.7882C31.8917 55.7888 31.873 55.7892 31.873 55.7892L31.8072 55.7589C31.6561 55.7323 31.5724 55.7161 31.5559 55.7103C31.5454 55.7056 31.5088 55.6806 31.446 55.6353C31.4416 55.6319 31.405 55.6147 31.3361 55.5839C31.2776 55.5576 31.2454 55.536 31.2393 55.5191L31.1752 55.4325C31.1654 55.418 31.1278 55.3852 31.0623 55.3343C31.0778 55.3009 31.0845 55.2765 31.0825 55.2609C31.0818 55.2551 31.0497 55.204 30.9863 55.1075C30.9693 55.0821 30.9521 55.0006 30.9346 54.863C30.9292 54.8204 30.934 54.7489 30.9488 54.6487C30.9625 54.5703 30.9735 54.5246 30.9817 54.5118L31.0658 54.3833L31.1125 54.2388C31.1705 54.1687 31.2373 54.0896 31.3127 54.0016L31.5084 53.8446L31.7048 53.6698L31.7814 53.6456L31.9936 53.5486L32.1346 53.5193C32.2435 53.4626 32.3038 53.4335 32.3155 53.4321C32.424 53.4187 32.5042 53.4609 32.556 53.5588ZM32.274 54.0364L32.3311 54.0914C32.3689 54.0788 32.3945 54.0708 32.4078 54.0672C32.4591 54.0529 32.5098 54.0329 32.5596 54.0071L32.7272 54.0012C32.7292 54.0009 32.7328 53.9906 32.7381 53.9703C32.7385 53.9584 32.7383 53.9486 32.7373 53.9409C32.7351 53.9234 32.7207 53.9036 32.6943 53.8812C32.6899 53.8778 32.6788 53.8674 32.6608 53.85C32.6064 53.7937 32.5737 53.7682 32.5625 53.7735L32.4607 53.7389C32.4483 53.7345 32.4271 53.7145 32.397 53.6788C32.3398 53.678 32.2433 53.686 32.1076 53.7027L32.0491 53.707L31.9576 53.7773C31.9542 53.7817 31.9026 53.8018 31.8029 53.8378C31.7251 53.8769 31.657 53.9138 31.5984 53.9486C31.586 53.96 31.5524 53.9976 31.4975 54.0614C31.4871 54.0726 31.467 54.0928 31.4373 54.122L31.4395 54.1394L31.446 54.1445L31.669 54.2026L31.741 54.2587L31.8371 54.1081C31.8458 54.0991 31.856 54.0939 31.8676 54.0925C31.8734 54.0918 31.9225 54.0985 32.0149 54.1127C32.0168 54.1125 32.0188 54.1122 32.0207 54.112C32.0459 54.1089 32.0999 54.0924 32.1828 54.0625C32.2014 54.0543 32.2318 54.0456 32.274 54.0364ZM33.999 54.343C34.0208 54.2971 34.0535 54.2055 34.0971 54.0682C34.1256 53.9821 34.1473 53.9361 34.1623 53.9303C34.1935 53.8969 34.2246 53.8626 34.2556 53.8273L34.3129 53.7434L34.3985 53.6502L34.511 53.5124L34.5781 53.4598L34.6387 53.4021L34.6994 53.3681L34.7756 53.2937L34.9227 53.2195C35.0135 53.1748 35.0703 53.1491 35.0931 53.1424C35.1389 53.1308 35.1788 53.12 35.213 53.1098C35.2567 53.1438 35.2873 53.1607 35.305 53.1605C35.307 53.1602 35.3537 53.1407 35.4453 53.1018C35.4528 53.0989 35.4594 53.0971 35.4652 53.0964C35.4672 53.0962 35.5112 53.1016 35.5972 53.1126C35.6072 53.1133 35.6239 53.1132 35.6474 53.1123C35.6825 53.1099 35.7081 53.1097 35.7241 53.1117C35.8118 53.0733 35.8604 53.0535 35.8701 53.0523C35.9089 53.0476 35.9464 53.0557 35.9825 53.0769C35.979 53.1265 35.9694 53.1601 35.954 53.1778C35.9387 53.1974 35.9087 53.2168 35.8639 53.2361L35.8564 53.3168C35.7981 53.3535 35.7603 53.3818 35.7431 53.4016C35.7201 53.4221 35.7039 53.434 35.6945 53.4371C35.6945 53.4371 35.6797 53.437 35.6501 53.4367C35.6443 53.4374 35.6404 53.4379 35.6385 53.4381L35.5346 53.4569L35.5316 53.4572L35.4459 53.456L35.3753 53.4588C35.3067 53.4456 35.2499 53.4398 35.2048 53.4415C35.1912 53.4431 35.1698 53.4448 35.1405 53.4465C35.1051 53.4469 35.0758 53.4485 35.0525 53.4514C35.037 53.4533 34.9668 53.4738 34.8418 53.5128C34.7749 53.529 34.7314 53.5432 34.7113 53.5555C34.6917 53.5717 34.6548 53.6146 34.6007 53.6843C34.5874 53.7037 34.555 53.7204 34.5037 53.7346C34.5035 53.7799 34.4965 53.8103 34.4828 53.8258C34.4653 53.8437 34.4319 53.8596 34.3825 53.8736C34.3891 53.8944 34.3935 53.9136 34.3957 53.931C34.3967 53.9387 34.3758 53.9836 34.333 54.0657C34.3205 54.0908 34.3277 54.21 34.3547 54.4231C34.3606 54.4696 34.3958 54.5529 34.4602 54.6728C34.436 54.7309 34.4246 54.7727 34.4259 54.7981C34.4387 54.8063 34.4731 54.8139 34.5291 54.8208C34.6282 54.9187 34.6925 54.9915 34.7222 55.039L34.7931 55.0391C34.827 55.0743 34.8494 55.0951 34.8601 55.1017L34.9798 55.1607L35.0656 55.2091C35.143 55.2291 35.1906 55.2399 35.2085 55.2417C35.2207 55.2441 35.2657 55.2425 35.3438 55.2368L35.4543 55.2468L35.5568 55.24L35.6335 55.2394C35.6718 55.2307 35.7329 55.2006 35.8169 55.1489L35.8711 55.1569C35.8943 55.1383 35.9095 55.1256 35.9165 55.1189C35.931 55.1092 35.9645 55.0785 36.017 55.0268C36.0667 55.0147 36.1087 54.9889 36.143 54.9492C36.1682 54.9146 36.1978 54.8844 36.232 54.8585C36.2462 54.8469 36.2609 54.8304 36.2759 54.8088C36.3155 54.7488 36.346 54.7175 36.3673 54.7149C36.3828 54.713 36.3996 54.7208 36.4175 54.7382C36.4082 54.82 36.407 54.8881 36.4139 54.9423C36.3798 54.9839 36.3527 55.0266 36.3326 55.0704C36.2917 55.0893 36.2376 55.1284 36.1703 55.1879C36.1401 55.1975 36.1134 55.2126 36.0904 55.2332C36.0568 55.2629 36.0274 55.2793 36.0022 55.2824L35.9026 55.2888L35.8997 55.2892C35.7997 55.3232 35.7403 55.3443 35.7217 55.3525C35.7161 55.3552 35.6921 55.3758 35.6498 55.4145C35.6408 55.4215 35.6325 55.4255 35.6247 55.4265L35.3307 55.4598C35.3191 55.4612 35.2913 55.4676 35.2475 55.4789C35.197 55.4537 35.1512 55.4416 35.11 55.4428C35.055 55.4436 34.9743 55.4359 34.8679 55.4195L34.797 55.4194L34.7122 55.4033C34.6584 55.3981 34.6245 55.3944 34.6104 55.3922C34.5981 55.3879 34.5821 55.378 34.5624 55.3628C34.4491 55.2764 34.3913 55.2245 34.3891 55.207C34.3871 55.1915 34.3877 55.1728 34.3908 55.1507C34.3881 55.1452 34.3868 55.1424 34.3868 55.1424L34.2902 55.172C34.2902 55.172 34.288 55.1703 34.2836 55.1669C34.2396 55.0995 34.2087 55.0571 34.1907 55.0396C34.154 54.9989 34.133 54.9651 34.1276 54.9382C34.1242 54.9268 34.1159 54.8924 34.1027 54.835L34.1016 54.8263L34.1059 54.7431C34.0467 54.7111 34.0161 54.6873 34.0141 54.6718C34.0134 54.666 34.0553 54.6313 34.1397 54.5677C34.1865 54.5324 34.2061 54.4857 34.1988 54.4276C34.1916 54.3714 34.1251 54.3432 33.999 54.343ZM36.6188 53.1577C36.6247 53.0802 36.6461 53.0392 36.683 53.0347L36.6859 53.0343L36.8294 53.0254L36.8353 53.0247C36.9418 52.9958 37.0028 52.9794 37.018 52.9756C37.0136 52.9407 37.0107 52.9175 37.0092 52.9058C36.9861 52.7237 36.9633 52.575 36.9408 52.4597C36.9306 52.4098 36.9132 52.3657 36.8886 52.3274L36.8518 52.2699C36.8421 52.2554 36.8361 52.2394 36.8339 52.222C36.8302 52.1929 36.8491 52.1552 36.8904 52.1087C36.9538 52.034 37.0394 51.9792 37.1472 51.9442C37.1657 51.8888 37.1896 51.8593 37.2186 51.8557C37.2303 51.8542 37.2406 51.8579 37.2496 51.8666C37.2804 51.8923 37.2987 51.9284 37.3046 51.9749C37.3049 51.9769 37.3156 52.131 37.3367 52.4374C37.3235 52.5197 37.3148 52.568 37.3107 52.5823C37.3064 52.6104 37.2877 52.6412 37.2545 52.6748C37.2595 52.7136 37.2701 52.7506 37.2864 52.786L37.3532 52.7778L37.3546 52.9282C37.4035 52.926 37.5073 52.9369 37.6658 52.9606C37.6758 52.9613 37.7088 52.9582 37.765 52.9513C37.7999 52.947 37.8556 52.9283 37.9322 52.8952L38.1219 52.8541C38.2158 52.8032 38.2715 52.7766 38.289 52.7744C38.3142 52.7713 38.3455 52.7704 38.3831 52.7717C38.3861 52.8264 38.3852 52.8659 38.3804 52.8901C38.3763 52.9201 38.3215 52.9771 38.216 53.0609C38.1908 53.0798 38.1733 53.0967 38.1634 53.1117C38.1387 53.1502 38.1254 53.1695 38.1235 53.1698C38.1148 53.1787 38.092 53.1855 38.0552 53.19C38.0261 53.1936 38.0043 53.1923 37.9897 53.1863L37.8624 53.137L37.7875 53.1286L37.6922 53.0754L37.5583 53.2071L37.4281 53.2054C37.4184 53.2066 37.4003 53.2187 37.3736 53.2417C37.4009 53.3327 37.4186 53.4103 37.4267 53.4742C37.4307 53.5052 37.4355 53.5509 37.4412 53.6112C37.3709 53.6316 37.3387 53.6651 37.3446 53.7116C37.3468 53.7291 37.3534 53.7499 37.3644 53.7741C37.4075 53.7728 37.4441 53.7741 37.4741 53.7783L37.5144 54.1423C37.4843 54.1382 37.4596 54.1373 37.4402 54.1397C37.4053 54.144 37.3897 54.1607 37.3934 54.1897C37.3964 54.213 37.4086 54.24 37.4303 54.2708C37.4552 54.25 37.4773 54.2384 37.4967 54.236C37.5258 54.2324 37.5427 54.249 37.5473 54.2859L37.5534 54.4032L37.5541 54.409C37.568 54.488 37.5782 54.5448 37.5845 54.5794C37.5931 54.6157 37.6094 54.6511 37.6334 54.6855L37.6761 54.7423C37.6809 54.7495 37.6843 54.7609 37.6863 54.7764C37.6885 54.7939 37.6894 54.8164 37.689 54.844C37.7535 54.8715 37.8226 54.8806 37.8962 54.8715C37.9582 54.8639 38.0183 54.8407 38.0764 54.8021C38.1234 54.7687 38.1485 54.7499 38.1519 54.7455L38.2934 54.5805C38.3646 54.5048 38.4088 54.4658 38.4263 54.4637C38.4437 54.4615 38.4691 54.4673 38.5023 54.4809C38.5011 54.5184 38.5005 54.5441 38.5002 54.5579C38.4994 54.6603 38.4934 54.7211 38.482 54.7402C38.4704 54.7574 38.4143 54.7889 38.3138 54.8348C38.2395 54.8853 38.1254 54.9476 37.9714 55.0217L37.8765 55.0658C37.8153 55.1108 37.7798 55.1339 37.7701 55.1351C37.7527 55.1372 37.7311 55.1222 37.7054 55.0899L37.6512 55.0819L37.6284 55.1585C37.6018 55.1657 37.5787 55.1705 37.5594 55.1729C37.509 55.1791 37.4447 55.1536 37.3666 55.0963C37.3316 55.0692 37.3024 55.0403 37.2788 55.0097C37.2766 55.008 37.2657 54.9838 37.246 54.937C37.2165 54.8757 37.2012 54.8402 37.2 54.8306C37.1978 54.8131 37.1962 54.7848 37.1951 54.7455C37.1951 54.7141 37.1888 54.6489 37.1763 54.5501C37.1701 54.4859 37.1814 54.4353 37.2102 54.3983C37.1939 54.3629 37.1824 54.3191 37.1758 54.2668C37.1548 54.1788 37.1275 54.01 37.0939 53.7603C37.1367 53.7255 37.1564 53.6945 37.153 53.6674C37.151 53.6519 37.1467 53.6337 37.1402 53.6129L37.0533 53.603L37.0441 53.5775L37.0438 53.5746C37.0425 53.5649 37.0429 53.5442 37.0447 53.5125C37.05 53.4607 37.0447 53.3728 37.029 53.2488C36.9473 53.2411 36.8881 53.2396 36.8513 53.2441C36.8396 53.2456 36.79 53.2576 36.7023 53.2802L36.6419 53.2936C36.5899 53.3177 36.5619 53.33 36.558 53.3305C36.5309 53.3339 36.5157 53.323 36.5125 53.2978C36.5076 53.259 36.5431 53.2123 36.6188 53.1577ZM38.816 52.9485C38.8126 52.9214 38.837 52.881 38.8892 52.8273C39.0046 52.7127 39.1069 52.6341 39.196 52.5916L39.2947 52.671C39.2814 52.7218 39.2745 52.7915 39.2739 52.8802C39.2714 52.9533 39.2711 52.9976 39.2731 53.0131L39.2867 53.1206L39.2461 53.1965C39.2522 53.2449 39.2795 53.2888 39.3277 53.3281C39.3188 53.3509 39.3146 53.3642 39.3151 53.368L39.339 53.5097C39.339 53.5097 39.3393 53.5205 39.3401 53.5421C39.3399 53.5559 39.3417 53.5783 39.3457 53.6093L39.4015 54.1662C39.4071 54.195 39.4282 54.2603 39.4647 54.3621L39.486 54.4834C39.505 54.5401 39.5151 54.5733 39.5163 54.583C39.5215 54.6237 39.5087 54.6627 39.478 54.6999C39.4695 54.7108 39.4359 54.7405 39.3771 54.7891C39.2897 54.8766 39.2397 54.9242 39.2268 54.9316C39.2084 54.9418 39.1915 54.9478 39.176 54.9497C39.1527 54.9526 39.128 54.9438 39.1018 54.9235C39.1034 54.8741 39.1042 54.8415 39.1041 54.8258C39.1031 54.8023 39.1084 54.7583 39.1199 54.6939L39.1048 54.5512L39.089 54.2638L39.0795 54.2119C39.0775 54.1806 39.091 54.1632 39.1201 54.1596C39.1279 54.1587 39.1377 54.1584 39.1496 54.1589C39.1553 54.1267 39.1575 54.1048 39.156 54.0932C39.154 54.0777 39.1444 54.0484 39.1271 54.0052C39.1189 53.9866 39.1096 53.9602 39.0994 53.926L39.0451 53.8943C39.0456 53.851 39.0444 53.8187 39.0417 53.7973C39.0405 53.7877 39.0377 53.7732 39.0333 53.7541C39.0313 53.7386 39.0296 53.725 39.0281 53.7134C39.0249 53.6882 39.0311 53.6589 39.0465 53.6255C39.0242 53.6047 39.0114 53.5817 39.0082 53.5565L39.0053 53.5332L39.0027 53.5129L38.9884 53.4467C39.1115 53.4079 39.1719 53.3798 39.1697 53.3624C39.1694 53.3604 39.1671 53.3578 39.1628 53.3544C39.1305 53.3328 39.093 53.3246 39.0504 53.3299C39.0194 53.3337 38.9818 53.3403 38.9377 53.3497C38.9399 53.3199 38.9403 53.3002 38.9391 53.2905C38.9386 53.2866 38.9187 53.1916 38.8793 53.0056C38.8745 52.9826 38.8533 52.9636 38.816 52.9485ZM38.7199 51.7707L38.7195 51.7678C38.707 51.7005 38.7471 51.6208 38.8398 51.5286C38.8608 51.5083 38.8829 51.48 38.9058 51.4437C38.9075 51.4416 38.9249 51.4237 38.9581 51.3901C39.0163 51.2746 39.0534 51.21 39.0694 51.1963C39.0957 51.1714 39.1186 51.1577 39.138 51.1553C39.1457 51.1544 39.1699 51.1661 39.2104 51.1907C39.2507 51.2132 39.2732 51.2439 39.2782 51.2827C39.2821 51.3137 39.2681 51.3429 39.2361 51.3705C39.1551 51.4454 39.0786 51.5257 39.0068 51.6113L38.932 51.6737L38.8391 51.756C38.7885 51.7918 38.7593 51.8101 38.7516 51.8111C38.7341 51.8133 38.7236 51.7998 38.7199 51.7707ZM40.1544 53.9788C40.1382 53.8509 40.1342 53.757 40.1423 53.6969C40.1514 53.6446 40.1689 53.5647 40.1946 53.4573C40.2554 53.3002 40.2904 53.2113 40.2996 53.1904C40.309 53.1716 40.3493 53.1322 40.4204 53.0722C40.4221 53.07 40.433 53.0392 40.453 52.9796C40.4665 52.9465 40.4787 52.9263 40.4896 52.919C40.5087 52.899 40.5783 52.85 40.6984 52.7722C40.7367 52.7478 40.7785 52.7053 40.824 52.6446C40.8307 52.6358 40.9413 52.576 41.1556 52.4649C41.2662 52.406 41.433 52.3627 41.6559 52.3352C41.7005 52.3297 41.7597 52.3303 41.8333 52.3369L41.8527 52.3965C41.8813 52.4048 41.9063 52.4155 41.9276 52.4286C41.9555 52.4153 41.9756 52.3873 41.9879 52.3444C42.0974 52.3545 42.1954 52.3818 42.2817 52.4262C42.3465 52.4556 42.3833 52.4747 42.3923 52.4834C42.3969 52.4888 42.4206 52.5203 42.4634 52.578C42.5098 52.6333 42.5796 52.6561 42.6729 52.6466C42.7292 52.7183 42.7655 52.7719 42.7818 52.8073C42.8001 52.8424 42.8205 52.9029 42.8432 52.9886C42.8661 53.0763 42.8837 53.145 42.8959 53.1947L42.8494 53.2004L42.8538 53.2353L42.8041 53.3093C42.8161 53.3413 42.8471 53.369 42.8973 53.3923C42.9023 53.4782 42.9039 53.5371 42.902 53.5688C42.8998 53.5829 42.8896 53.6186 42.8713 53.6759C42.8209 53.8533 42.7841 53.9671 42.761 54.0172C42.6739 54.1539 42.5895 54.2411 42.5077 54.2787L42.3606 54.3766L42.2211 54.4646C42.149 54.5168 42.1064 54.5457 42.0933 54.5512C42.08 54.5549 41.9867 54.5723 41.8135 54.6035L41.6155 54.6722L41.4091 54.6977L41.3175 54.7208C41.1432 54.7128 41.0346 54.7105 40.9917 54.7138C40.9607 54.6861 40.938 54.6702 40.9237 54.6661C40.9196 54.6646 40.8809 54.6625 40.8077 54.6598C40.768 54.6568 40.6861 54.6246 40.5622 54.5631C40.5435 54.5556 40.5062 54.5405 40.4501 54.5179C40.4341 54.4845 40.4233 54.4612 40.4177 54.4481C40.4072 54.4278 40.3976 54.4142 40.3889 54.4074C40.3869 54.4077 40.3649 54.3966 40.3227 54.3743C40.3207 54.3745 40.3128 54.3666 40.299 54.3506C40.2477 54.2881 40.2178 54.2229 40.2092 54.1551C40.2051 54.1221 40.2215 54.0886 40.2585 54.0545C40.2371 54.0257 40.2039 54.0042 40.1588 53.9901L40.1544 53.9788ZM40.4669 53.8812L40.4706 53.9103L40.5 53.9332C40.5172 53.9134 40.5354 53.9013 40.5545 53.8969C40.5784 53.9609 40.5983 54.0096 40.6144 54.0431C40.6268 54.0632 40.6879 54.1412 40.7976 54.2773C40.8001 54.2809 40.8018 54.2866 40.8027 54.2943C40.805 54.3118 40.7988 54.3411 40.7843 54.3822C40.7955 54.4084 40.8236 54.4197 40.8684 54.4161C40.8853 54.3943 40.9006 54.3826 40.9141 54.381C40.9258 54.3795 41.0162 54.4097 41.1855 54.4714C41.2575 54.496 41.3284 54.504 41.3982 54.4954L41.5697 54.4742L41.6595 54.4838C41.6976 54.4889 41.7302 54.4898 41.7573 54.4865C41.8019 54.481 41.8514 54.468 41.9059 54.4474C41.9415 54.4332 41.9934 54.415 42.0614 54.3928C42.0801 54.3846 42.1407 54.3348 42.2433 54.2434C42.3157 54.2089 42.3562 54.1862 42.3646 54.1753C42.3762 54.1582 42.4058 54.0965 42.4534 53.9902L42.5076 53.8359C42.5502 53.7834 42.5746 53.7509 42.5809 53.7383C42.587 53.7238 42.5885 53.7049 42.5855 53.6817C42.5486 53.639 42.5302 53.6098 42.5301 53.594L42.5298 53.5911L42.534 53.5316C42.5266 53.442 42.529 53.3679 42.5413 53.3093C42.5211 53.2744 42.4953 53.2185 42.464 53.1417L42.3983 52.9963C42.3919 52.9774 42.384 52.9381 42.3744 52.8782L42.3613 52.8681L42.2916 52.8767C42.2651 52.8386 42.2137 52.783 42.1375 52.7097C42.0926 52.6661 42.067 52.6426 42.0607 52.6395C42.0561 52.6342 42.0364 52.6267 42.0018 52.6172C41.9731 52.609 41.9222 52.5956 41.849 52.5771C41.821 52.5116 41.7857 52.4816 41.7431 52.4868C41.7314 52.4883 41.7026 52.5017 41.6566 52.527C41.5946 52.5189 41.5597 52.5154 41.5519 52.5163C41.4511 52.5288 41.3854 52.5388 41.3549 52.5465C41.3222 52.5525 41.2746 52.5811 41.2122 52.6321L41.1456 52.596C41.1215 52.6383 41.1021 52.6643 41.0876 52.674L40.9707 52.7534L40.9533 52.7791L40.6415 53.1158L40.618 53.1393C40.621 53.1941 40.6194 53.2287 40.6134 53.2432L40.5681 53.3521C40.5556 53.4088 40.5372 53.4573 40.5128 53.4977C40.5167 53.513 40.5194 53.5264 40.5208 53.538C40.5265 53.5826 40.4971 53.6226 40.4327 53.6581C40.4334 53.6639 40.444 53.6853 40.4644 53.7221C40.5214 53.7525 40.5507 53.7734 40.5521 53.7851C40.5548 53.8064 40.5264 53.8384 40.4669 53.8812ZM43.4806 52.4022C43.4875 52.3325 43.5303 52.2741 43.609 52.227C43.6891 52.1443 43.7504 52.1003 43.7931 52.095C43.8377 52.0895 43.8672 52.0977 43.8818 52.1195C43.8864 52.1248 43.8965 52.1807 43.9119 52.287C43.9153 52.3141 43.9443 52.3637 43.9987 52.4357C44.0637 52.3273 44.1031 52.2732 44.1169 52.2735L44.2106 52.197C44.28 52.1235 44.3254 52.0854 44.3467 52.0828C44.3719 52.0797 44.3998 52.0979 44.4304 52.1374C44.5272 52.0467 44.6279 51.9949 44.7326 51.982C44.7539 51.9794 44.7727 51.98 44.789 51.9839C44.8292 51.9908 44.8493 51.9942 44.8493 51.9942C44.9215 51.9577 44.9653 51.9385 44.9808 51.9366C45.0021 51.934 45.0578 51.9379 45.1477 51.9485C45.2015 51.9537 45.251 51.9554 45.296 51.9538C45.3273 51.9834 45.3489 51.9984 45.3608 51.9989L45.4292 52.0023C45.4805 52.0038 45.5465 52.0508 45.6272 52.1432C45.676 52.2021 45.7152 52.3409 45.7449 52.5596C45.6984 52.5654 45.652 52.5799 45.6057 52.6034C45.5595 52.6268 45.5374 52.6462 45.5393 52.6617C45.5396 52.6637 45.609 52.6915 45.7478 52.7452C45.7643 52.7511 45.7745 52.7695 45.7784 52.8005C45.7826 52.8334 45.7716 52.8948 45.7456 52.9846C45.7442 52.9887 45.7439 52.9947 45.7449 53.0024C45.7479 53.0257 45.7721 53.0541 45.8178 53.0879C45.8171 53.1293 45.8186 53.1645 45.8223 53.1936C45.8248 53.213 45.8456 53.2606 45.8847 53.3364L45.9108 53.4956L45.9372 53.634L45.9439 53.7571C45.9464 53.7765 45.9606 53.8112 45.9866 53.8611C45.9392 53.9063 45.9056 53.936 45.8857 53.9503C45.8768 53.9573 45.8355 53.9811 45.7619 54.0217C45.7474 54.0313 45.7082 54.0637 45.6443 54.1188C45.5829 54.0694 45.5497 54.0252 45.5448 53.9865C45.5431 53.9729 45.551 53.8952 45.5684 53.7533C45.5691 53.7434 45.5682 53.7209 45.5658 53.6857C45.5655 53.6681 45.5646 53.6534 45.5631 53.6418L45.6187 53.6143C45.7139 53.5887 45.7619 53.571 45.7626 53.5611C45.7626 53.5611 45.7511 53.5556 45.728 53.5447C45.6778 53.5214 45.6019 53.5052 45.5004 53.496C45.5014 53.4113 45.5096 53.3591 45.5248 53.3395L45.6017 53.2474C45.6426 53.1971 45.6607 53.1535 45.656 53.1167C45.6551 53.1089 45.5875 53.0887 45.4535 53.0561L45.4489 52.9504L45.4149 52.7981C45.4146 52.7962 45.4165 52.7881 45.4206 52.7738C45.4259 52.7535 45.4301 52.7244 45.4332 52.6867C45.3978 52.6556 45.3793 52.6343 45.3778 52.6226L45.3623 52.477C45.3599 52.4576 45.3411 52.4333 45.3059 52.4042C45.2707 52.3751 45.251 52.3441 45.2468 52.3112L45.2301 52.2955C45.1818 52.2877 45.1543 52.2803 45.1475 52.2732L45.0484 52.1438C45.0297 52.1205 45.0107 52.1101 44.9913 52.1124C44.9583 52.1165 44.9211 52.1408 44.8794 52.1853C44.8156 52.2561 44.7555 52.295 44.6993 52.302C44.6896 52.3032 44.6489 52.3003 44.5772 52.2934L44.5289 52.3555L44.5308 52.37C44.4778 52.2782 44.4309 52.2347 44.3902 52.2398C44.3883 52.24 44.3781 52.2452 44.3597 52.2553C44.3343 52.2723 44.3056 52.2866 44.2736 52.2984C44.2344 52.3151 44.1854 52.3477 44.1266 52.3963C44.0382 52.4603 43.988 52.5069 43.9759 52.5359C43.9508 52.5862 43.9411 52.6337 43.9467 52.6783C43.947 52.6802 43.9568 52.742 43.9761 52.8636L43.9772 52.8723L43.9776 52.8752C43.982 52.9101 43.9771 52.9333 43.9628 52.9449L43.8441 53.057C43.8318 53.0683 43.8262 53.0789 43.8275 53.0885C43.8299 53.1079 43.8498 53.1251 43.8872 53.1402C43.9699 53.1713 44.0178 53.192 44.0309 53.2022C44.042 53.2126 44.0492 53.2304 44.0524 53.2556C44.0531 53.2614 44.0536 53.281 44.0539 53.3144L44.087 53.5288C44.0885 53.5404 44.0747 53.5717 44.0457 53.6225C44.0426 53.6288 44.042 53.6396 44.044 53.6551C44.0484 53.69 44.0734 53.7243 44.119 53.7581L44.1114 53.7679C44.1212 53.8139 44.1271 53.8446 44.129 53.8601C44.1513 53.9735 44.1779 54.0598 44.2091 54.1189C44.1948 54.162 44.1785 54.1886 44.1601 54.1987C44.1529 54.2036 44.1216 54.2133 44.0664 54.228C44.0567 54.2292 44.0437 54.2357 44.0275 54.2476C44.0055 54.2601 43.9907 54.2678 43.9832 54.2707C43.9699 54.2744 43.9571 54.2897 43.9447 54.3168C43.9322 54.342 43.9114 54.3564 43.8823 54.3599C43.8707 54.3614 43.8515 54.35 43.8248 54.3257C43.8073 54.3121 43.7975 54.2966 43.7953 54.2792C43.7933 54.2637 43.793 54.246 43.7945 54.2261C43.8007 54.1663 43.8031 54.1316 43.8019 54.1219L43.7768 53.9007C43.7872 53.8423 43.7917 53.8083 43.7905 53.7986C43.788 53.7792 43.7812 53.7565 43.77 53.7303C43.7554 53.6927 43.7472 53.6672 43.7455 53.6536C43.7445 53.6459 43.744 53.6262 43.744 53.5948C43.7434 53.5752 43.7423 53.5586 43.7406 53.545C43.7374 53.5198 43.7318 53.4831 43.7237 53.4349C43.7188 53.4119 43.7149 53.3888 43.712 53.3655C43.7088 53.3403 43.7115 53.3075 43.7202 53.2671L43.7968 53.2193C43.7907 53.2023 43.7822 53.1896 43.7713 53.1811C43.7589 53.1767 43.7273 53.1757 43.6764 53.178C43.6698 53.1415 43.665 53.1115 43.6621 53.0883C43.6598 53.0709 43.66 53.0413 43.6626 52.9997C43.6633 52.9897 43.6628 52.978 43.6611 52.9644C43.6555 52.9199 43.6344 52.8388 43.5978 52.7213L43.6599 52.6753C43.6162 52.6256 43.5918 52.5961 43.5867 52.5869C43.5821 52.5816 43.5754 52.5598 43.5666 52.5215C43.5607 52.4907 43.5321 52.451 43.4806 52.4022ZM47.1603 52.8926C47.1789 52.853 47.198 52.825 47.2176 52.8088C47.2319 52.7972 47.2881 52.7745 47.3862 52.7408C47.4552 52.6949 47.5018 52.6665 47.526 52.6556C47.5429 52.6496 47.6002 52.6356 47.6979 52.6137L47.7869 52.5703L47.8414 52.5577L47.893 52.5454L48.0064 52.5314L48.2324 52.474C48.2995 52.4598 48.341 52.4458 48.357 52.432C48.3887 52.4025 48.4015 52.3636 48.3953 52.3151C48.3941 52.3054 48.3824 52.2754 48.3603 52.225L48.4875 52.0174C48.4873 52.0155 48.4248 52.0035 48.2999 51.9815C48.2897 51.9788 48.2604 51.9805 48.2119 51.9865C48.1151 51.8902 48.0582 51.8372 48.0412 51.8275C48.0208 51.8221 47.9454 51.8177 47.815 51.8141L47.722 51.8256C47.6779 51.8192 47.649 51.8169 47.6355 51.8185C47.62 51.8204 47.5979 51.8251 47.5693 51.8326L47.5052 51.7697C47.4646 51.7904 47.4343 51.8158 47.4145 51.8458C47.3978 51.8695 47.3701 51.8916 47.3313 51.9122C47.236 51.9672 47.1586 52.025 47.0993 52.0854L47.062 52.1166C47.0414 52.1565 47.0275 52.1789 47.0203 52.1838C46.9987 52.2002 46.9724 52.2103 46.9414 52.2142C46.9298 52.2156 46.8926 52.2094 46.8298 52.1955C46.7619 52.1881 46.7196 52.1805 46.7029 52.1728C46.684 52.1633 46.6586 52.1418 46.6268 52.1083C46.6566 52.0791 46.6775 52.0578 46.6896 52.0445C46.7189 52.0114 46.7392 51.9931 46.7506 51.9898L46.8832 51.9409L46.9645 51.8836L47.1432 51.8025L47.2533 51.7388L47.3725 51.7241L47.4985 51.6701L47.5534 51.6604L47.653 51.6304C47.7482 51.6206 47.8084 51.6142 47.8336 51.6111C47.861 51.6096 47.915 51.6167 47.9958 51.6324L48.0667 51.6325C48.144 51.6367 48.1985 51.6398 48.2303 51.6418C48.2576 51.6404 48.2952 51.6574 48.343 51.6928C48.3138 51.7259 48.3004 51.7522 48.3028 51.7716C48.3063 51.7987 48.3196 51.8108 48.3429 51.808C48.3584 51.806 48.3797 51.7955 48.4068 51.7765C48.4252 51.7663 48.4512 51.7542 48.4849 51.7403C48.5133 51.7623 48.531 51.7936 48.5381 51.834L48.6175 51.8774C48.624 51.8982 48.6277 51.9115 48.6284 51.9174L48.6341 52.0318C48.6662 52.1144 48.6943 52.1651 48.7183 52.1837L48.7299 52.1823C48.7411 52.2242 48.7548 52.2698 48.7709 52.3189C48.7909 52.4306 48.8043 52.5047 48.8109 52.5413C48.7697 52.5739 48.7507 52.6028 48.7539 52.628C48.7576 52.6571 48.7871 52.68 48.8424 52.6968C48.8475 52.7218 48.8512 52.743 48.8534 52.7604C48.8556 52.7778 48.856 52.8122 48.8547 52.8636C48.8554 52.8851 48.8572 52.9065 48.8599 52.9279C48.868 52.9918 48.8887 53.0699 48.9221 53.1622C48.8916 53.2014 48.8786 53.2385 48.883 53.2733C48.8867 53.3024 48.9079 53.3381 48.9468 53.3806C48.9516 53.3879 48.9608 53.4054 48.9741 53.4333C48.9817 53.4461 48.9956 53.471 49.0161 53.5078C48.9979 53.5356 48.9855 53.5618 48.9787 53.5862C48.965 53.6017 48.9369 53.6209 48.8945 53.6439L48.7903 53.7069L48.7231 53.7359C48.6545 53.7699 48.6164 53.7874 48.6087 53.7884C48.5893 53.7907 48.5666 53.7827 48.5406 53.7643L48.5596 53.5642C48.5051 53.5847 48.4275 53.6248 48.3267 53.6844L48.2446 53.7123C48.1957 53.7301 48.1703 53.7392 48.1683 53.7394L48.0593 53.741L47.9587 53.8095L47.9013 53.8225L47.672 53.901L47.5488 53.9074C47.4914 53.9361 47.4521 53.9518 47.4307 53.9544C47.4036 53.9578 47.3264 53.9545 47.1992 53.9446L47.0756 53.9481L46.9806 53.9214C46.9096 53.9046 46.856 53.8856 46.8199 53.8645C46.7881 53.8468 46.7602 53.8128 46.7361 53.7627L46.6663 53.7477C46.656 53.7293 46.6429 53.6955 46.6268 53.6463L46.5819 53.5249L46.5815 53.522C46.5774 53.5048 46.5864 53.4751 46.6087 53.433C46.6263 53.4013 46.6472 53.3486 46.6713 53.2748C46.7545 53.17 46.8099 53.1022 46.8374 53.0712C46.8619 53.0466 46.9191 53.009 47.0092 52.9585C47.0591 52.9169 47.0908 52.8953 47.1043 52.8936C47.1198 52.8917 47.1385 52.8914 47.1603 52.8926ZM47.0581 53.5311C47.0458 53.5582 47.0346 53.5861 47.0245 53.6149C47.0076 53.6524 47.0008 53.6769 47.0042 53.6883L47.0403 53.7399L47.1129 53.6601C47.1847 53.6985 47.2334 53.718 47.2591 53.7188C47.3333 53.7293 47.3734 53.7352 47.3795 53.7364C47.3921 53.7427 47.4111 53.761 47.4366 53.7913C47.482 53.7916 47.5125 53.7918 47.5283 53.7918C47.544 53.7919 47.5567 53.7913 47.5664 53.7901C47.5877 53.7874 47.6122 53.7706 47.6398 53.7397C47.6694 53.7557 47.6939 53.7625 47.7132 53.7601C47.7171 53.7597 47.7368 53.7444 47.7724 53.7145L47.856 53.7219C47.856 53.7219 47.906 53.697 48.006 53.6473L48.0772 53.603L48.1427 53.6068L48.2473 53.5466L48.3689 53.4814C48.3955 53.427 48.4122 53.3954 48.4189 53.3867C48.4342 53.3671 48.4661 53.3474 48.5148 53.3276L48.5205 53.2325C48.5529 53.2088 48.5708 53.179 48.5741 53.1432C48.5445 53.1272 48.5226 53.1092 48.5082 53.0893C48.506 53.0562 48.5039 53.0318 48.5019 53.0163L48.496 52.9698C48.4875 52.9177 48.4799 52.8734 48.4733 52.8368C48.4699 52.8255 48.4675 52.8149 48.4663 52.8052C48.4634 52.782 48.4668 52.7471 48.4767 52.7006C48.459 52.7008 48.4352 52.692 48.4054 52.674L48.2807 52.6923L48.1666 52.7005L48.0797 52.7142L48.0245 52.721C48.0167 52.722 47.9857 52.7101 47.9314 52.6853L47.87 52.7135C47.7924 52.7231 47.736 52.736 47.7006 52.7521C47.6786 52.7647 47.6598 52.7719 47.6443 52.7739C47.6405 52.7743 47.6174 52.7713 47.5752 52.7647C47.5733 52.7649 47.5714 52.7652 47.5694 52.7654C47.5597 52.7666 47.5309 52.7879 47.483 52.8292C47.476 52.836 47.4281 52.8616 47.3392 52.906C47.222 52.9755 47.1393 53.0379 47.0912 53.093C47.0861 53.0996 47.0685 53.1313 47.0383 53.1881C47.0289 53.207 46.997 53.2277 46.9428 53.2501C46.9368 53.2646 46.9342 53.2758 46.9352 53.2835C46.936 53.2893 46.9452 53.3 46.9629 53.3155L47.0031 53.4699C47.0087 53.483 47.0271 53.5034 47.0581 53.5311ZM49.5397 51.6278C49.5469 51.5915 49.5612 51.5572 49.5828 51.525C49.5994 51.5013 49.646 51.4651 49.7225 51.4163C49.7993 51.3537 49.8434 51.3216 49.8551 51.3202C49.89 51.3159 49.9177 51.3253 49.9384 51.3483L49.9562 51.3963L49.9909 51.4835C49.9878 51.5055 49.987 51.5224 49.9885 51.534C49.9907 51.5514 50.0039 51.5705 50.0282 51.5911C50.0655 51.5747 50.1147 51.544 50.176 51.499L50.293 51.4433L50.4048 51.3468L50.4792 51.3052C50.5192 51.2786 50.5411 51.2651 50.5449 51.2646C50.5449 51.2646 50.5668 51.2658 50.6104 51.2683C50.6143 51.2678 50.6172 51.2675 50.6191 51.2672C50.6288 51.266 50.6921 51.2376 50.8091 51.1818C50.8222 51.1762 50.851 51.1707 50.8956 51.1652C50.9285 51.1611 50.9524 51.1631 50.9672 51.1711C50.9694 51.1728 50.9922 51.1897 51.0356 51.2217C51.0596 51.2247 51.0736 51.2259 51.0774 51.2254C51.0813 51.2249 51.1077 51.2079 51.1566 51.1743C51.1602 51.1719 51.165 51.1703 51.1708 51.1696C51.196 51.1665 51.2269 51.1774 51.2635 51.2024C51.298 51.2257 51.3256 51.2646 51.3462 51.3192C51.3209 51.3518 51.2685 51.4045 51.1891 51.4773C51.1533 51.5368 51.1258 51.5678 51.1064 51.5702C51.0754 51.574 51.0307 51.548 50.9725 51.4922C50.9381 51.5004 50.9092 51.5059 50.886 51.5088C50.8608 51.5119 50.8176 51.5054 50.7565 51.4894C50.7078 51.4777 50.6588 51.4719 50.6096 51.4721C50.5952 51.5132 50.5659 51.5385 50.5218 51.5479C50.468 51.5584 50.4346 51.5665 50.4215 51.5721C50.3469 51.6049 50.3096 51.6213 50.3096 51.6213C50.3019 51.6222 50.2855 51.6174 50.2605 51.6067C50.2262 51.6463 50.1649 51.707 50.0769 51.7888C50.0205 51.841 50.0004 51.9232 50.0166 52.0353L50.0177 52.044C50.0206 52.0673 50.0246 52.0983 50.0295 52.137C50.0358 52.1717 50.0405 52.2006 50.0434 52.2239C50.0461 52.2452 50.0279 52.2799 49.9887 52.328C50.0261 52.3588 50.0464 52.3868 50.0496 52.412C50.0513 52.4256 50.0514 52.4423 50.05 52.4622L50.0951 52.4684L50.1149 52.5545L50.1953 53.073L50.1878 53.1064L50.1173 53.1564C50.0115 53.1911 49.959 53.2123 49.96 53.2201C49.961 53.2278 50.0237 53.2329 50.148 53.2353L50.1959 53.2175C50.2234 53.2791 50.2387 53.3215 50.2416 53.3447C50.2473 53.3893 50.2294 53.4269 50.188 53.4576C50.1718 53.4695 50.1236 53.4853 50.0434 53.505C50.0284 53.5108 49.9898 53.5401 49.9276 53.5931C49.9169 53.6023 49.9038 53.6078 49.8883 53.6097C49.8418 53.6155 49.816 53.598 49.8108 53.5573C49.8093 53.5457 49.8169 53.4887 49.8334 53.3863C49.8358 53.3742 49.8363 53.3623 49.8348 53.3507C49.8343 53.3468 49.824 53.3038 49.8037 53.2217C49.803 53.2159 49.8048 53.1989 49.8091 53.1708L49.8763 53.1419C49.876 53.1242 49.875 53.1086 49.8733 53.095C49.8701 53.0698 49.8518 53.0416 49.8183 53.0103C49.8148 52.9832 49.8118 52.9589 49.8091 52.9376C49.8068 52.9202 49.7953 52.8754 49.7743 52.8032C49.772 52.7385 49.768 52.6839 49.7624 52.6393C49.8309 52.6053 49.8628 52.5699 49.8582 52.5331C49.8567 52.5214 49.8518 52.5063 49.8436 52.4876C49.821 52.4963 49.802 52.5016 49.7865 52.5035C49.7729 52.5052 49.7555 52.4995 49.7341 52.4864C49.7292 52.4476 49.7238 52.405 49.7179 52.3585L49.7102 52.2975L49.7002 52.219L49.6973 52.1957C49.6953 52.1802 49.6922 52.1629 49.6878 52.1438C49.6853 52.1244 49.6833 52.1089 49.6819 52.0973C49.6779 52.0663 49.6853 52.0231 49.7038 51.9676C49.6759 51.9494 49.6591 51.9328 49.6532 51.9178C49.6505 51.9122 49.6387 51.8497 49.6176 51.7303C49.6127 51.7073 49.5868 51.6731 49.5397 51.6278ZM51.5572 51.3758C51.5537 51.3487 51.5782 51.3083 51.6304 51.2546C51.7458 51.14 51.8481 51.0614 51.9372 51.0189L52.0359 51.0983C52.0226 51.1491 52.0157 51.2188 52.0151 51.3074C52.0126 51.3806 52.0123 51.4249 52.0142 51.4404L52.0279 51.5479L51.9873 51.6238C51.9934 51.6722 52.0206 51.7161 52.0689 51.7554C52.06 51.7781 52.0558 51.7915 52.0563 51.7953L52.0802 51.937C52.0802 51.937 52.0805 51.9478 52.0813 51.9694C52.0811 51.9832 52.0829 52.0056 52.0869 52.0366L52.1427 52.5935C52.1483 52.6223 52.1694 52.6876 52.2059 52.7894L52.2272 52.9107C52.2462 52.9674 52.2563 53.0006 52.2575 53.0103C52.2627 53.051 52.2499 53.09 52.2192 53.1272C52.2107 53.1381 52.1771 53.1678 52.1183 53.2164C52.0309 53.3039 51.9808 53.3514 51.968 53.3589C51.9496 53.3691 51.9327 53.3751 51.9172 53.377C51.8939 53.3799 51.8692 53.3711 51.843 53.3508C51.8446 53.3014 51.8454 53.2688 51.8453 53.253C51.8443 53.2296 51.8496 53.1856 51.8611 53.1212L51.846 52.9784L51.8302 52.6911L51.8207 52.6391C51.8187 52.6079 51.8322 52.5905 51.8613 52.5869C51.8691 52.5859 51.8789 52.5857 51.8907 52.5862C51.8965 52.554 51.8987 52.5321 51.8972 52.5205C51.8952 52.505 51.8856 52.4757 51.8683 52.4325C51.86 52.4139 51.8508 52.3875 51.8406 52.3533L51.7863 52.3216C51.7867 52.2783 51.7856 52.2459 51.7829 52.2246C51.7817 52.2149 51.7789 52.2005 51.7745 52.1814C51.7725 52.1659 51.7708 52.1523 51.7693 52.1407C51.7661 52.1155 51.7723 52.0862 51.7877 52.0528C51.7654 52.032 51.7526 52.0089 51.7494 51.9838L51.7465 51.9605L51.7439 51.9402L51.7296 51.874C51.8527 51.8352 51.9131 51.8071 51.9109 51.7897C51.9106 51.7877 51.9083 51.7851 51.9039 51.7817C51.8717 51.7601 51.8342 51.7519 51.7916 51.7572C51.7606 51.761 51.723 51.7676 51.6789 51.777C51.681 51.7472 51.6815 51.7275 51.6803 51.7178C51.6798 51.7139 51.6599 51.6189 51.6205 51.4329C51.6157 51.4099 51.5945 51.3909 51.5572 51.3758ZM51.4611 50.198L51.4607 50.1951C51.4482 50.1278 51.4883 50.0481 51.581 49.9559C51.602 49.9356 51.624 49.9073 51.647 49.871C51.6487 49.8689 51.6661 49.851 51.6993 49.8173C51.7575 49.7019 51.7946 49.6373 51.8105 49.6235C51.8369 49.5986 51.8598 49.585 51.8792 49.5826C51.8869 49.5816 51.9111 49.5934 51.9516 49.6179C51.9919 49.6405 52.0144 49.6712 52.0194 49.7099C52.0233 49.7409 52.0093 49.7702 51.9773 49.7978C51.8963 49.8727 51.8198 49.953 51.748 50.0386L51.6732 50.101L51.5803 50.1833C51.5297 50.2191 51.5005 50.2374 51.4928 50.2384C51.4753 50.2405 51.4647 50.2271 51.4611 50.198ZM54.4853 50.852L54.5709 50.7824C54.6044 50.8137 54.6276 50.8334 54.6405 50.8417C54.6448 50.8451 54.6664 50.8523 54.7052 50.8632C54.7258 50.8705 54.8195 50.9416 54.9862 51.0765C55.0389 51.1192 55.0766 51.1608 55.0995 51.2013C55.1196 51.2362 55.1418 51.2787 55.1658 51.3289C55.1809 51.3545 55.1989 51.3877 55.2198 51.4285L55.202 51.4513C55.1802 51.4501 55.15 51.4449 55.1115 51.4359L55.0062 51.4903L54.9051 51.485L54.8208 51.519C54.6898 51.4486 54.6214 51.4138 54.6156 51.4145C54.604 51.4159 54.5635 51.4613 54.4941 51.5505C54.367 51.5426 54.2997 51.5391 54.2919 51.54C54.2609 51.5439 54.2244 51.5513 54.1825 51.5624L54.1665 51.5526C54.136 51.5603 54.0519 51.5726 53.9143 51.5896L53.8082 51.6145L53.6759 51.6426L53.5422 51.6828L53.4197 51.6949C53.3117 51.7437 53.2377 51.7735 53.1977 51.7843C53.1964 51.8514 53.1925 51.8981 53.186 51.9245C53.178 51.955 53.1588 51.9899 53.1284 52.029C53.1958 52.064 53.2325 52.09 53.2386 52.1069C53.2737 52.2286 53.3027 52.3096 53.3256 52.3501L53.3816 52.3727L53.3807 52.482L53.4738 52.4941C53.5032 52.5712 53.5352 52.6214 53.5696 52.6447C53.6019 52.6663 53.6526 52.6777 53.7216 52.679C53.7389 52.7379 53.759 52.7718 53.7818 52.7808C53.7988 52.7905 53.8346 52.794 53.8894 52.7912L53.9484 52.8606C53.9692 52.8541 53.9874 52.8499 54.0029 52.848C54.0145 52.8466 54.0758 52.8636 54.1866 52.8991C54.2113 52.9079 54.2373 52.9106 54.2644 52.9072C54.2896 52.9041 54.3375 52.8864 54.4083 52.854L54.5918 52.8107L54.7291 52.7524C54.7964 52.7402 54.8413 52.7288 54.8635 52.7181C54.8948 52.7005 54.9506 52.6592 55.0309 52.5942C55.1096 52.5313 55.1545 52.4894 55.1656 52.4683C55.1953 52.4233 55.2224 52.3728 55.2467 52.3166C55.2593 52.2914 55.285 52.2765 55.3237 52.2717C55.3412 52.2695 55.368 52.279 55.4041 52.3001C55.3994 52.3716 55.3926 52.4187 55.3836 52.4414C55.3197 52.589 55.2798 52.6864 55.2642 52.7336C55.2375 52.7251 55.2154 52.7219 55.198 52.7241C55.1864 52.7255 55.1568 52.7488 55.1094 52.7941C55.0775 52.8216 55.0356 52.8406 54.9837 52.8509C54.8677 52.8987 54.7868 52.9283 54.741 52.9399C54.6625 52.9575 54.613 52.9705 54.5924 52.9789C54.5348 53.0057 54.505 53.0192 54.5031 53.0195L54.3282 53.0145L54.2286 53.0445L54.1796 53.0535C54.1338 53.065 54.0983 53.0724 54.0731 53.0755C54.0479 53.0786 53.9763 53.0805 53.8583 53.0813C53.8209 53.082 53.8023 53.0823 53.8023 53.0823L53.7364 53.0521C53.5854 53.0255 53.5016 53.0092 53.4852 53.0034C53.4747 52.9988 53.4381 52.9738 53.3752 52.9284C53.3709 52.925 53.3342 52.9079 53.2654 52.877C53.2069 52.8508 53.1746 52.8292 53.1686 52.8122L53.1044 52.7257C53.0947 52.7111 53.0571 52.6784 52.9916 52.6274C53.007 52.5941 53.0138 52.5696 53.0118 52.5541C53.0111 52.5483 52.979 52.4972 52.9156 52.4007C52.8986 52.3752 52.8814 52.2937 52.8639 52.1561C52.8585 52.1135 52.8632 52.0421 52.8781 51.9419C52.8918 51.8634 52.9027 51.8178 52.911 51.805L52.9951 51.6765L53.0417 51.532C53.0998 51.4619 53.1665 51.3828 53.242 51.2947L53.4377 51.1378L53.6341 50.963L53.7107 50.9387L53.9229 50.8417L54.0639 50.8125C54.1728 50.7558 54.2331 50.7267 54.2447 50.7252C54.3533 50.7118 54.4335 50.7541 54.4853 50.852ZM54.2032 51.3296L54.2604 51.3845C54.2982 51.372 54.3237 51.3639 54.3371 51.3603C54.3884 51.3461 54.439 51.3261 54.4889 51.3002L54.6565 51.2943C54.6584 51.2941 54.662 51.2838 54.6673 51.2635C54.6678 51.2516 54.6675 51.2418 54.6666 51.234C54.6644 51.2166 54.65 51.1967 54.6236 51.1744C54.6192 51.171 54.608 51.1606 54.5901 51.1431C54.5357 51.0868 54.5029 51.0614 54.4918 51.0667L54.3899 51.032C54.3776 51.0276 54.3563 51.0076 54.3262 50.972C54.269 50.9712 54.1726 50.9792 54.0369 50.9959L53.9784 51.0002L53.8869 51.0705C53.8835 51.0749 53.8319 51.095 53.7321 51.1309C53.6544 51.17 53.5862 51.207 53.5276 51.2418C53.5153 51.2531 53.4817 51.2907 53.4268 51.3546C53.4164 51.3657 53.3963 51.3859 53.3665 51.4152L53.3687 51.4326L53.3753 51.4377L53.5982 51.4958L53.6703 51.5518L53.7664 51.4012C53.7751 51.3923 53.7853 51.3871 53.7969 51.3857C53.8027 51.3849 53.8518 51.3917 53.9442 51.4059C53.9461 51.4056 53.948 51.4054 53.95 51.4051C53.9752 51.402 54.0292 51.3855 54.112 51.3556C54.1307 51.3474 54.1611 51.3387 54.2032 51.3296ZM57.4648 51.5499L57.3962 51.6144C57.3179 51.6024 57.2565 51.5992 57.2119 51.6047C57.1595 51.6112 57.097 51.6228 57.0244 51.6396C56.9974 51.5977 56.964 51.5674 56.9242 51.5487L56.8782 51.6282C56.8382 51.639 56.7911 51.6556 56.7369 51.6781C56.7143 51.6868 56.6944 51.6922 56.6769 51.6943C56.673 51.6948 56.6671 51.6946 56.6591 51.6936C56.5835 51.6872 56.5457 51.684 56.5457 51.684C56.5437 51.6842 56.5412 51.6875 56.538 51.6938L56.4754 51.6425C56.4461 51.6599 56.4208 51.6699 56.3995 51.6725C56.3918 51.6735 56.3663 51.6668 56.3231 51.6524C56.3129 51.6497 56.2946 51.6451 56.2682 51.6385C56.1123 51.6046 56.0269 51.5286 56.0119 51.4104C55.9989 51.3077 56.0257 51.2011 56.0924 51.0905C56.1101 51.0588 56.1579 51.0008 56.2357 50.9164L56.2869 50.854L56.4132 50.7557C56.542 50.6532 56.6376 50.5844 56.7001 50.5491C56.8434 50.4684 56.9606 50.4225 57.0517 50.4112C57.0673 50.4093 57.1571 50.4189 57.3212 50.44L57.4691 50.3951C57.5648 50.3892 57.6209 50.3892 57.6374 50.395C57.6786 50.4096 57.7004 50.4266 57.7029 50.446C57.7053 50.4654 57.6981 50.4859 57.6812 50.5077C57.6759 50.5123 57.632 50.5472 57.5498 50.6125C57.4638 50.6801 57.4151 50.7147 57.4034 50.7161C57.2774 50.7317 57.1842 50.7343 57.1239 50.7241C57.0993 50.6858 57.0748 50.6554 57.0503 50.6328L57.0329 50.6349L56.985 50.6999C56.9523 50.7059 56.9282 50.7099 56.9127 50.7118C56.8952 50.7139 56.8786 50.715 56.8629 50.715C56.8413 50.7157 56.8257 50.7166 56.816 50.7178C56.8121 50.7183 56.7876 50.7272 56.7426 50.7446C56.7256 50.7349 56.6958 50.7326 56.6531 50.7379C56.6181 50.7718 56.559 50.8184 56.476 50.8779C56.4326 50.9088 56.3967 50.9516 56.3682 51.0063C56.3417 51.0607 56.3312 51.1102 56.3368 51.1548C56.3395 51.1761 56.3614 51.201 56.4024 51.2294C56.409 51.2344 56.4448 51.2458 56.5101 51.2633C56.5491 51.2762 56.5896 51.2928 56.6316 51.3132C56.6316 51.329 56.6322 51.3417 56.6334 51.3514C56.6386 51.3921 56.6577 51.4104 56.6906 51.4063C56.7216 51.4025 56.7533 51.373 56.7857 51.3178C56.831 51.3181 56.8692 51.3164 56.9002 51.3125C56.9118 51.3111 56.966 51.2956 57.0626 51.2659L57.1568 51.2632C57.2406 51.241 57.2864 51.2295 57.2941 51.2285C57.3077 51.2268 57.3589 51.2343 57.4476 51.2509L57.5508 51.2263L57.6647 51.2861C57.7837 51.3245 57.8666 51.3645 57.9132 51.406C57.9491 51.4409 57.9705 51.4697 57.9773 51.4925L58.0098 51.5859C58.0517 51.6988 58.0737 51.764 58.0759 51.7814C58.0774 51.793 58.0778 51.8274 58.0772 51.8846C58.0832 52.0098 58.0552 52.0762 57.9932 52.0839C57.9738 52.0863 57.9511 52.0861 57.9252 52.0834C57.9142 52.1832 57.9018 52.2408 57.888 52.2563C57.8136 52.3678 57.766 52.4425 57.7452 52.4805C57.648 52.5063 57.5704 52.5464 57.5124 52.6008C57.4862 52.6276 57.4704 52.6424 57.4648 52.645C57.4592 52.6477 57.4354 52.6536 57.3932 52.6627L57.1658 52.7557C57.0866 52.7517 57.0431 52.7502 57.0353 52.7512C57.0237 52.7526 56.9675 52.7753 56.8667 52.8192L56.7959 52.8191C56.7021 52.8248 56.6313 52.8256 56.5836 52.8217C56.4796 52.8089 56.4239 52.7971 56.4166 52.7862L56.3159 52.7367C56.1926 52.681 56.1155 52.6394 56.0844 52.6117C56.0177 52.5511 55.9803 52.4888 55.9722 52.4248C55.9704 52.4113 55.9888 52.3854 56.0273 52.3472L56.0966 52.2648C56.1634 52.2015 56.2026 52.1691 56.2142 52.1677C56.222 52.1667 56.2291 52.1688 56.2357 52.1739C56.2857 52.211 56.3138 52.2548 56.3202 52.3051L56.3204 52.3996L56.3208 52.4025C56.321 52.4202 56.3276 52.4331 56.3404 52.4414C56.3492 52.4482 56.3868 52.4652 56.4532 52.4924C56.4678 52.4985 56.4868 52.5089 56.5104 52.5237C56.5642 52.5604 56.5921 52.5786 56.5941 52.5783L56.7072 52.6086L56.8127 52.6488L56.9231 52.6351L56.9948 52.641C57.0638 52.6109 57.1263 52.5914 57.1822 52.5825C57.2363 52.5738 57.275 52.5612 57.2985 52.5445L57.4049 52.4753C57.4642 52.4463 57.4983 52.4274 57.507 52.4184C57.5401 52.3848 57.5805 52.3149 57.628 52.2086C57.677 52.0983 57.6932 51.9772 57.6765 51.8455C57.6728 51.8164 57.6607 51.7904 57.64 51.7673C57.5499 51.6623 57.4915 51.5899 57.4648 51.5499Z" fill="#FFB6C1"/>
<path d="M48 26.1427C48 25.0373 47.2893 24.0363 46.092 23.2513C46.0053 22.9387 45.86 22.6373 45.6633 22.35C45.7831 22.0716 45.855 21.775 45.876 21.4727C46.6507 20.7847 47.0937 19.9767 47.0937 19.1043C47.0937 16.5223 43.2277 14.5 38.292 14.5C33.4637 14.5 29.661 16.436 29.4983 18.9377C28.7243 19.6253 28.282 20.432 28.282 21.3037C28.282 21.8663 28.466 22.4023 28.804 22.8963C28.6599 23.2266 28.585 23.583 28.584 23.9433C28.584 24.8583 29.0713 25.702 29.9177 26.411C28.7097 27.1907 28 28.1597 28 29.2213C28 29.67 28.1287 30.1017 28.3653 30.5097C28.8187 32.7473 32.9537 34.5 37.99 34.5C43.0263 34.5 47.1617 32.7473 47.6147 30.5097C47.8513 30.1013 47.98 29.6697 47.98 29.2213C47.98 28.6967 47.8037 28.196 47.4827 27.728C47.8173 27.2357 48 26.7023 48 26.1427ZM45.9853 20.4167L45.9827 20.4043C45.988 20.4033 45.9923 20.4007 45.9977 20.3997L45.9853 20.4167ZM39.1283 15.2967C45.845 15.2967 47.433 19.7927 45.6727 19.7927C44.766 19.7927 45.8453 21.0823 45.1387 21.0823C43.7457 21.0823 45.485 27.1517 43.97 27.1517C42.121 27.1517 44.7537 21.708 43.182 21.708C42.442 21.708 42.1773 22.7713 41.3417 22.7713C40.4267 22.7713 40.339 21.5717 39.7 21.5717C39.4477 21.5717 39.1097 21.7587 38.601 22.2797C37.9697 22.9267 37.3073 23.3437 36.7667 23.3437C36.211 23.3437 35.7837 22.9033 35.6493 21.8193C35.6017 21.4343 35.451 21.2993 35.2693 21.2993C34.9383 21.2993 34.5043 21.747 34.4 21.9497C33.259 24.1677 35.3133 29.1333 33.5693 29.1333C31.5283 29.1333 34.2127 21.731 32.883 21.731C32.5293 21.731 32.081 22.1723 31.732 22.1723C31.6693 22.1733 31.6076 22.1565 31.554 22.124C30.3003 21.3563 32.7583 19.147 31.5373 19.147C28.7943 19.1473 31.6543 15.2967 39.1283 15.2967ZM45.207 23.1963C45.2064 23.1672 45.2056 23.1381 45.2047 23.109C45.2377 23.0673 45.2683 23.0257 45.2987 22.9837C45.4573 23.2907 45.5423 23.612 45.5423 23.943C45.5423 24.288 45.4483 24.6227 45.2767 24.942C45.2683 24.637 45.2547 24.32 45.2393 23.9907C45.2347 23.8983 45.23 23.7973 45.2253 23.6923C45.233 23.6293 45.2403 23.5667 45.2403 23.503C45.2398 23.3999 45.2286 23.2971 45.207 23.1963ZM37.0837 25.263C36.2974 25.2627 35.5123 25.2054 34.7343 25.0917C34.7097 24.7987 34.6932 24.5052 34.6847 24.2113C35.4417 24.3207 36.246 24.3827 37.0837 24.3827C39.4553 24.3827 41.5777 23.91 43.018 23.1647C42.9778 23.4705 42.931 23.7755 42.8777 24.0793C41.4 24.807 39.3557 25.263 37.0837 25.263ZM42.7553 26.916C41.3193 27.5273 39.4453 27.9017 37.386 27.9017C36.5353 27.9017 35.7187 27.8347 34.948 27.7173C34.9434 27.4236 34.9277 27.1302 34.901 26.8377C35.7236 26.9606 36.5542 27.0222 37.386 27.022C39.4077 27.022 41.2453 26.6763 42.638 26.1137C42.641 26.4083 42.6743 26.6797 42.7553 26.916ZM34.8143 22.6823C34.8567 22.525 34.9063 22.3757 34.9737 22.2453C34.9883 22.2203 35.0153 22.1873 35.0483 22.1523C35.09 22.3867 35.147 22.5887 35.2133 22.7677C35.0783 22.741 34.946 22.7123 34.8143 22.6823ZM38.72 23.0553C38.842 22.9467 38.959 22.837 39.0623 22.7307C39.3913 22.3933 39.5783 22.2763 39.6617 22.2363C39.713 22.2943 39.784 22.3937 39.835 22.4657C39.9353 22.6063 40.0637 22.784 40.2313 22.948C39.7295 23.0069 39.2252 23.0427 38.72 23.0553ZM30.4287 19.5297C30.613 19.6443 30.8367 19.722 31.0977 19.7613C31.0693 19.8227 31.0407 19.8827 31.016 19.935C30.9283 20.1183 30.822 20.3433 30.732 20.5877C30.3933 20.1827 30.1887 19.7447 30.1457 19.286C30.2253 19.3783 30.3187 19.4613 30.4287 19.5297ZM29.5773 19.7617C29.5817 19.7773 29.5843 19.7937 29.5887 19.8097C29.3553 20.1423 29.2283 20.4963 29.2283 20.8637C29.2283 22.048 30.5367 23.0937 32.5383 23.7317C32.5043 24.012 32.4667 24.2943 32.4307 24.553C30.3147 23.8377 28.9263 22.65 28.9263 21.3037C28.9263 20.7557 29.1617 20.2357 29.5773 19.7617ZM29.2287 23.9433C29.2287 23.784 29.2507 23.6277 29.289 23.4737C29.3707 23.5553 29.4557 23.636 29.5463 23.7143C29.675 24.687 30.6847 25.553 32.223 26.1553C32.1919 26.4286 32.1674 26.7026 32.1493 26.977C30.365 26.2507 29.2287 25.1613 29.2287 23.9433ZM32.1557 28.127C31.87 27.8893 31.6307 27.6367 31.4517 27.3703C31.6667 27.472 31.896 27.565 32.131 27.655C32.133 27.821 32.1407 27.9787 32.1557 28.127ZM29.8627 28.1993C30.2003 30.0033 33.5737 31.4213 37.688 31.4213C40.2027 31.4213 42.4343 30.8893 43.8697 30.0647C44.2468 29.944 44.617 29.8023 44.9783 29.6403C43.8247 30.992 40.9547 31.9783 37.688 31.9783C33.441 31.9783 29.853 30.3137 29.853 28.3423C29.853 28.2937 29.8587 28.2467 29.8627 28.1993ZM37.99 33.2983C32.9243 33.2983 28.6447 31.431 28.6447 29.2217C28.6447 28.714 28.873 28.225 29.2827 27.7717C29.2342 27.9579 29.2093 28.1495 29.2083 28.342C29.2083 30.743 32.933 32.6233 37.6877 32.6233C41.9533 32.6233 45.387 31.109 46.0487 29.064C46.435 28.8153 46.7707 28.543 47.0503 28.2527C47.2337 28.5647 47.335 28.8887 47.335 29.2213C47.3353 31.431 43.0557 33.2983 37.99 33.2983ZM39.1983 30.1017C37.4507 30.1017 35.8397 29.8303 34.5143 29.375L34.5147 29.3743C34.6927 29.177 34.7997 28.9237 34.866 28.6327C36.1083 29.003 37.5947 29.2213 39.1983 29.2213C43.5357 29.2213 47.0533 27.6457 47.0533 25.7023C47.0533 25.1573 46.7767 24.6413 46.2827 24.1807C46.964 24.759 47.3553 25.4283 47.3553 26.1423C47.3553 28.3287 43.703 30.1017 39.1983 30.1017Z" fill="#FFB6C1"/>
<path d="M10.7225 56.6586C10.8658 56.5365 11.0354 56.4593 11.2167 56.4187C11.5111 56.3527 11.8367 56.372 12.1678 56.4132C12.8302 56.4954 13.5238 56.6583 13.9649 56.5232C14.3789 56.3964 14.6314 56.175 14.7621 55.9227C14.8183 55.8142 14.8519 55.6988 14.8645 55.5812C14.0436 55.2626 12.977 55.276 12.237 55.7083C12.8825 55.1213 13.8285 54.8722 14.7979 55.1026L14.8381 55.2161C14.8292 55.1808 14.8185 55.146 14.8063 55.1117C14.6142 54.5715 14.0012 54.1094 13.0657 54.2493C12.6359 54.3136 12.0223 54.5721 11.5353 55.0283C11.1141 55.4231 10.7847 55.9604 10.7226 56.6587L10.7225 56.6586ZM13.2362 53.1552C13.3907 53.1726 13.5349 53.2273 13.6645 53.3084C13.8909 53.4501 14.0817 53.6633 14.2617 53.893C14.6218 54.3525 14.9508 54.8786 15.3026 55.0628C15.6359 55.2372 15.9261 55.2542 16.1609 55.1792C16.2614 55.1472 16.3549 55.0968 16.4367 55.0307C16.1244 54.3334 15.4587 53.693 14.734 53.5074C15.498 53.54 16.2366 53.9633 16.6941 54.696C16.9009 54.2495 16.808 53.6029 16.1523 53.1231C15.8484 52.9008 15.3083 52.6843 14.7241 52.6681C14.2282 52.6544 13.7023 52.7793 13.2363 53.1551L13.2362 53.1552ZM13.9336 58.5931C14.5158 58.7394 15.0462 58.6331 15.4903 58.4134C16.0133 58.1547 16.4114 57.7325 16.5926 57.404C16.9839 56.6949 16.7936 56.0699 16.4166 55.7513C16.3125 56.6069 15.8221 57.2994 15.143 57.648C15.7216 57.1769 16.0538 56.3179 16.0412 55.555C15.939 55.529 15.8328 55.5224 15.7281 55.5352C15.4833 55.5654 15.2271 55.7025 14.9988 55.9999C14.7579 56.3139 14.6828 56.9284 14.5511 57.4955C14.4853 57.7791 14.4029 58.0522 14.2576 58.2753C14.1744 58.403 14.0664 58.5127 13.9336 58.5931L13.9336 58.5931Z" fill="#FFB6C1"/>
<path d="M67.2408 49.645C67.0918 49.5296 66.9187 49.4604 66.7357 49.4283C66.4385 49.376 66.1141 49.4105 65.7853 49.4669C65.1277 49.5799 64.4426 49.7749 63.9955 49.6604C63.5759 49.553 63.3131 49.3435 63.1706 49.0976C63.1093 48.9918 63.0702 48.8781 63.052 48.7612C63.8568 48.4049 64.9228 48.3687 65.6827 48.766C65.0098 48.2097 64.053 48.0049 63.0957 48.2801L63.061 48.3953C63.0682 48.3597 63.0771 48.3244 63.0877 48.2896C63.2539 47.741 63.8441 47.2509 64.7852 47.3472C65.2177 47.3914 65.8429 47.6211 66.3511 48.0543C66.7907 48.429 67.1454 48.9504 67.2407 49.645L67.2408 49.645ZM64.5627 46.2622C64.4092 46.2868 64.2678 46.3482 64.1422 46.4352C63.9228 46.5872 63.7424 46.8091 63.5735 47.0469C63.2358 47.5226 62.9323 48.0634 62.5896 48.2637C62.265 48.4535 61.976 48.4839 61.7379 48.4199C61.636 48.3926 61.5401 48.3467 61.4553 48.2844C61.7339 47.5734 62.3684 46.9027 63.0834 46.6836C62.3218 46.7517 61.6042 47.2088 61.1822 47.962C60.9543 47.5256 61.0162 46.8754 61.6484 46.3657C61.9412 46.1295 62.4704 45.8882 63.0532 45.8449C63.5479 45.8081 64.0792 45.9084 64.5627 46.2622L64.5627 46.2622ZM64.1255 51.7266C63.551 51.8998 63.0161 51.8181 62.5621 51.6194C62.0273 51.3852 61.6095 50.9821 61.4127 50.6623C60.9881 49.9721 61.1483 49.3391 61.5097 49.0032C61.6545 49.8531 62.1774 50.522 62.8724 50.8387C62.2719 50.395 61.8991 49.5524 61.8753 48.7897C61.9761 48.7591 62.0819 48.7474 62.1871 48.7554C62.4331 48.7742 62.6955 48.8992 62.9378 49.1857C63.1934 49.4882 63.2978 50.0985 63.4564 50.6589C63.5357 50.9391 63.631 51.208 63.7867 51.4241C63.8759 51.5478 63.989 51.6524 64.1255 51.7265L64.1255 51.7266Z" fill="#FFB6C1"/>
</svg>
