<svg width="50" height="49" viewBox="0 0 50 49" fill="none" xmlns="http://www.w3.org/2000/svg">
<rect x="0.679932" y="0.5" width="48.64" height="48" rx="24" fill="black"/>
<path d="M36.5851 27.0023C36.3635 27.0023 36.1764 26.9654 36.024 26.8916C35.8716 26.8137 35.7585 26.7153 35.6846 26.5964C35.6107 26.4735 35.5737 26.3464 35.5737 26.2152C35.5737 26.0799 35.6107 25.9631 35.6846 25.8647C35.7538 25.7622 35.8393 25.6884 35.9409 25.6433C36.121 25.3564 36.278 25.0674 36.412 24.7763C36.5459 24.4811 36.6729 24.1634 36.793 23.8232L37.8182 23.7002C37.8413 24.2249 37.8806 24.7927 37.936 25.4035C37.9591 25.6495 37.9706 25.8278 37.9706 25.9385C37.9706 26.1886 37.8991 26.3935 37.7559 26.5534C37.6127 26.7133 37.4349 26.8281 37.2225 26.8978C37.0147 26.9674 36.8022 27.0023 36.5851 27.0023ZM36.3635 26.5165C36.5343 26.5165 36.6775 26.4714 36.793 26.3812C36.9084 26.291 36.9662 26.1455 36.9662 25.9446C36.9662 25.8217 36.9523 25.6495 36.9246 25.4281C36.8784 24.9608 36.8484 24.6472 36.8345 24.4873C36.7237 24.8111 36.5367 25.1985 36.2734 25.6495C36.3796 25.6987 36.4327 25.7704 36.4327 25.8647C36.4327 25.9426 36.4027 26.0123 36.3427 26.0738C36.2873 26.1353 36.2157 26.166 36.1279 26.166C36.0309 26.166 35.9686 26.1394 35.9409 26.0861C35.9409 26.2336 35.9732 26.3423 36.0379 26.412C36.1071 26.4817 36.2157 26.5165 36.3635 26.5165Z" fill="#FFB6C1"/>
<path d="M34.1273 27.0018C33.7856 27.0018 33.52 26.9239 33.3307 26.7681C33.1413 26.6082 33.0466 26.3602 33.0466 26.0241C33.0466 25.7412 33.109 25.4296 33.2337 25.0894C33.3584 24.7491 33.5616 24.456 33.8433 24.2101C34.125 23.96 34.4829 23.835 34.9171 23.835C35.4251 23.835 35.6791 24.0317 35.6791 24.4253C35.6791 24.6548 35.6052 24.866 35.4574 25.0586C35.3096 25.2513 35.1133 25.4071 34.8686 25.526C34.6238 25.6408 34.3629 25.7064 34.0858 25.7228C34.0765 25.8457 34.0719 25.9277 34.0719 25.9687C34.0719 26.1696 34.1112 26.3069 34.1897 26.3807C34.2682 26.4504 34.3952 26.4852 34.5707 26.4852C34.8201 26.4852 35.0325 26.434 35.208 26.3315C35.3881 26.229 35.5844 26.0733 35.7968 25.8642H36.0324C35.5197 26.6226 34.8847 27.0018 34.1273 27.0018ZM34.1412 25.4276C34.3121 25.4194 34.4737 25.3661 34.6261 25.2677C34.7831 25.1693 34.9078 25.0443 35.0002 24.8926C35.0972 24.7409 35.1457 24.5811 35.1457 24.413C35.1457 24.2449 35.0879 24.1609 34.9725 24.1609C34.8062 24.1609 34.6423 24.29 34.4806 24.5483C34.3236 24.8065 34.2105 25.0996 34.1412 25.4276Z" fill="#FFB6C1"/>
<path d="M32.4467 23.5588C32.2943 23.5588 32.165 23.5116 32.0587 23.4173C31.9525 23.3231 31.8994 23.2083 31.8994 23.073C31.8994 22.9377 31.9525 22.8229 32.0587 22.7286C32.165 22.6302 32.2943 22.5811 32.4467 22.5811C32.5991 22.5811 32.7284 22.6302 32.8346 22.7286C32.9455 22.8229 33.0009 22.9377 33.0009 23.073C33.0009 23.2083 32.9455 23.3231 32.8346 23.4173C32.7284 23.5116 32.5991 23.5588 32.4467 23.5588ZM31.9756 27.0023C31.7539 27.0023 31.5738 26.9408 31.4353 26.8178C31.3013 26.6948 31.2344 26.5104 31.2344 26.2644C31.2344 26.1619 31.2528 26.0287 31.2898 25.8647L31.7609 23.8908H32.7584L32.2596 25.9815C32.2412 26.043 32.2319 26.1086 32.2319 26.1783C32.2319 26.2603 32.2527 26.3197 32.2943 26.3566C32.3405 26.3894 32.4144 26.4058 32.516 26.4058C32.6499 26.4058 32.7746 26.3566 32.89 26.2583C33.0055 26.1558 33.0886 26.0246 33.1394 25.8647H33.4304C33.2595 26.3074 33.0401 26.6088 32.7723 26.7686C32.5044 26.9244 32.2389 27.0023 31.9756 27.0023Z" fill="#FFB6C1"/>
<path d="M28.4814 27.0034C28.2182 27.0034 27.9988 26.9235 27.8233 26.7636C27.6478 26.6037 27.5601 26.3537 27.5601 26.0134C27.5601 25.71 27.627 25.3923 27.761 25.0603C27.8995 24.7241 28.1027 24.4413 28.3706 24.2117C28.6431 23.978 28.9663 23.8612 29.3404 23.8612C29.5298 23.8612 29.6706 23.8899 29.763 23.9473C29.8554 24.0047 29.9016 24.0805 29.9016 24.1748V24.1994L30.241 22.7851L31.2663 22.6621L30.4696 25.9827C30.4511 26.0441 30.4419 26.1097 30.4419 26.1794C30.4419 26.2614 30.4627 26.3209 30.5042 26.3578C30.5504 26.3905 30.6243 26.4069 30.7259 26.4069C30.8552 26.4069 30.9661 26.3578 31.0584 26.2594C31.1554 26.161 31.2316 26.0298 31.2871 25.8658H31.578C31.2963 26.5996 30.8322 26.9665 30.1856 26.9665C29.9962 26.9665 29.8415 26.9214 29.7214 26.8312C29.606 26.7411 29.5344 26.6099 29.5067 26.4377C29.3866 26.6017 29.2411 26.737 29.0703 26.8435C28.904 26.9501 28.7077 27.0034 28.4814 27.0034ZM28.9317 26.4069C29.0425 26.4069 29.1534 26.3619 29.2642 26.2717C29.3797 26.1815 29.4582 26.0564 29.4998 25.8966V25.8658L29.8392 24.4577C29.7976 24.3142 29.703 24.2424 29.5552 24.2424C29.3704 24.2424 29.2042 24.3388 29.0564 24.5315C28.9086 24.72 28.7932 24.9496 28.71 25.2202C28.6269 25.4866 28.5853 25.7223 28.5853 25.9273C28.5853 26.1323 28.6177 26.2635 28.6823 26.3209C28.7516 26.3783 28.8347 26.4069 28.9317 26.4069Z" fill="#FFB6C1"/>
<path d="M25.6172 26.9895C25.2754 26.9895 25.0053 26.9116 24.8067 26.7558C24.6081 26.6 24.5088 26.3541 24.5088 26.0179C24.5088 25.7391 24.5734 25.4296 24.7028 25.0894C24.8321 24.7491 25.0399 24.456 25.3262 24.2101C25.6126 23.96 25.9728 23.835 26.4069 23.835C26.9981 23.835 27.2936 24.1629 27.2936 24.8188V24.825C27.3075 24.8291 27.3329 24.8311 27.3698 24.8311C27.5223 24.8311 27.6977 24.7963 27.8963 24.7266C28.0949 24.6528 28.275 24.5647 28.4367 24.4622L28.499 24.6282C28.3651 24.7553 28.1896 24.8639 27.9725 24.9541C27.7601 25.0402 27.5269 25.1017 27.2729 25.1386C27.2359 25.5116 27.1412 25.8375 26.9888 26.1163C26.8364 26.3951 26.6402 26.6103 26.4 26.762C26.1598 26.9136 25.8989 26.9895 25.6172 26.9895ZM25.8943 26.4361C26.0051 26.4361 26.116 26.3807 26.2268 26.27C26.3377 26.1552 26.4346 26.0015 26.5178 25.8088C26.6009 25.6121 26.6609 25.3948 26.6979 25.157C26.5732 25.1324 26.5108 25.0463 26.5108 24.8988C26.5108 24.7307 26.5824 24.62 26.7256 24.5667C26.7164 24.4314 26.6933 24.3392 26.6563 24.29C26.6194 24.2367 26.5547 24.2101 26.4623 24.2101C26.3099 24.2101 26.1622 24.3084 26.019 24.5052C25.8758 24.702 25.7604 24.9377 25.6726 25.2124C25.5849 25.487 25.541 25.7289 25.541 25.938C25.541 26.1347 25.5664 26.268 25.6172 26.3377C25.668 26.4033 25.7604 26.4361 25.8943 26.4361Z" fill="#FFB6C1"/>
<path d="M22.5731 26.9895C22.2314 26.9895 21.9612 26.9116 21.7626 26.7558C21.564 26.6 21.4647 26.3541 21.4647 26.0179C21.4647 25.7391 21.5294 25.4296 21.6587 25.0894C21.788 24.7491 21.9958 24.456 22.2822 24.2101C22.5685 23.96 22.9287 23.835 23.3629 23.835C23.954 23.835 24.2496 24.1629 24.2496 24.8188V24.825C24.2634 24.8291 24.2888 24.8311 24.3258 24.8311C24.4782 24.8311 24.6537 24.7963 24.8523 24.7266C25.0509 24.6528 25.231 24.5647 25.3926 24.4622L25.455 24.6282C25.321 24.7553 25.1455 24.8639 24.9285 24.9541C24.716 25.0402 24.4828 25.1017 24.2288 25.1386C24.1918 25.5116 24.0972 25.8375 23.9448 26.1163C23.7924 26.3951 23.5961 26.6103 23.3559 26.762C23.1158 26.9136 22.8548 26.9895 22.5731 26.9895ZM22.8502 26.4361C22.9611 26.4361 23.0719 26.3807 23.1827 26.27C23.2936 26.1552 23.3906 26.0015 23.4737 25.8088C23.5568 25.6121 23.6169 25.3948 23.6538 25.157C23.5291 25.1324 23.4668 25.0463 23.4668 24.8988C23.4668 24.7307 23.5384 24.62 23.6815 24.5667C23.6723 24.4314 23.6492 24.3392 23.6122 24.29C23.5753 24.2367 23.5106 24.2101 23.4183 24.2101C23.2659 24.2101 23.1181 24.3084 22.9749 24.5052C22.8317 24.702 22.7163 24.9377 22.6285 25.2124C22.5408 25.487 22.4969 25.7289 22.4969 25.938C22.4969 26.1347 22.5223 26.268 22.5731 26.3377C22.6239 26.4033 22.7163 26.4361 22.8502 26.4361Z" fill="#FFB6C1"/>
<path d="M12.0293 31.5412C12.0293 31.5412 31.7727 27.5443 34.8901 28.7741" stroke="#FFB6C1" stroke-width="1.92"/>
<path d="M16.3617 30.0411C15.6248 30.0411 15.0292 29.9441 14.575 29.7502C14.1308 29.5614 13.9087 29.3114 13.9087 29.0001C13.9087 28.8062 13.9996 28.6276 14.1813 28.4643C14.363 28.301 14.6103 28.1734 14.9232 28.0815C15.2362 27.9846 15.5794 27.9361 15.9529 27.9361C16.3365 27.9361 16.6444 27.9846 16.8766 28.0815C17.1188 28.1785 17.24 28.3061 17.24 28.4643C17.24 28.5867 17.1845 28.6837 17.0734 28.7551C16.9826 28.6939 16.8564 28.6454 16.6949 28.6097C16.5434 28.574 16.3819 28.5561 16.2103 28.5561C15.9075 28.5561 15.6602 28.6071 15.4684 28.7092C15.2766 28.8113 15.1807 28.9439 15.1807 29.1072C15.1807 29.2705 15.2715 29.4032 15.4532 29.5053C15.645 29.6073 15.8822 29.6584 16.1649 29.6584C16.5182 29.6584 16.821 29.5793 17.0734 29.4211C17.3258 29.2629 17.5176 29.0281 17.6488 28.7169L18.4059 27.0252H18.3453C18.0728 27.2191 17.7397 27.3671 17.346 27.4692C16.9624 27.5712 16.5384 27.6223 16.074 27.6223C15.4885 27.6223 14.9737 27.5432 14.5295 27.385C14.0854 27.2268 13.7422 27.0022 13.4999 26.7114C13.2677 26.4154 13.1516 26.0735 13.1516 25.6857C13.1516 25.1243 13.3939 24.614 13.8784 24.1547C14.363 23.6904 15.0292 23.3255 15.8772 23.0601C16.7251 22.7948 17.6589 22.6621 18.6785 22.6621C19.5365 22.6621 20.2129 22.7565 20.7075 22.9453C21.2122 23.1341 21.4646 23.3918 21.4646 23.7184C21.4646 23.9379 21.3586 24.1139 21.1466 24.2466C20.9346 24.3793 20.657 24.4456 20.3138 24.4456C20.122 24.4456 19.9403 24.4252 19.7687 24.3844C19.6072 24.3436 19.4709 24.2849 19.3599 24.2083C19.5416 24.1471 19.693 24.0501 19.8141 23.9175C19.9454 23.7797 20.011 23.6419 20.011 23.5041C20.011 23.351 19.9201 23.2336 19.7384 23.152C19.5668 23.0652 19.3195 23.0219 18.9965 23.0219C18.411 23.0219 17.8457 23.1546 17.3005 23.4199C16.7554 23.6802 16.3163 24.0221 15.9832 24.4456C15.6501 24.8692 15.4835 25.3131 15.4835 25.7775C15.4835 26.1602 15.6046 26.4537 15.8469 26.6578C16.0892 26.8568 16.4374 26.9563 16.8917 26.9563C17.4368 26.9563 17.9163 26.8109 18.3302 26.52C18.7542 26.2291 19.0924 25.8056 19.3447 25.2493L21.1315 25.257L20.0261 27.8289C19.7031 28.5893 19.2438 29.1481 18.6482 29.5053C18.0627 29.8625 17.3005 30.0411 16.3617 30.0411Z" fill="#FFB6C1"/>
<path d="M14.9838 36.4727C14.9847 36.4801 14.9842 36.4865 14.9824 36.4917L14.9721 36.5894C14.9722 36.5906 14.9725 36.5925 14.9728 36.5949C14.9744 36.5973 14.976 36.6002 14.9777 36.6038L14.9102 36.7122L14.8653 36.731L14.7989 36.7883L14.77 36.7994L14.6917 36.8526L14.6843 36.8535L14.5647 36.8645C14.5436 36.8671 14.5156 36.8793 14.4805 36.9013L14.3925 36.967L14.245 36.9965L14.0947 37.0037L14.0577 36.9799L13.946 36.9786L13.819 36.9603L13.6428 36.9424L13.5541 36.8834L13.4721 36.818L13.4861 36.7501C13.4638 36.7629 13.4427 36.7706 13.4229 36.773L13.408 36.7749L13.3696 36.7399L13.3129 36.6657L13.2826 36.6354L13.258 36.5308L13.2661 36.475L13.2474 36.4471L13.2029 36.4091L13.2151 36.3113L13.1841 36.1413L13.235 36.0216L13.2943 35.8481L13.3874 35.7478L13.5509 35.5462L13.5999 35.5005L13.6659 35.4395L13.698 35.4242L13.767 35.3571L13.9973 35.2512L14.0531 35.2292C14.0556 35.2289 14.0576 35.2293 14.059 35.2304C14.0614 35.2301 14.0634 35.2305 14.0648 35.2315L14.1649 35.2607L14.2565 35.223L14.4389 35.2307L14.5887 35.1895C14.6079 35.1922 14.6293 35.1971 14.6529 35.2043C14.648 35.2452 14.6402 35.2732 14.6295 35.2884C14.6199 35.3022 14.5976 35.3194 14.5624 35.3401L14.5639 35.3815L14.4934 35.4375L14.4428 35.4702L14.4353 35.4711L14.3842 35.4698L14.3218 35.4851L14.0296 35.4758C14.0194 35.4746 14.0049 35.4751 13.9863 35.4774C13.969 35.4795 13.9567 35.4823 13.9496 35.4857L13.797 35.5347L13.7468 35.541C13.7056 35.5536 13.6682 35.5916 13.6346 35.6549L13.5581 35.6927L13.5324 35.7733L13.4706 35.7923C13.4768 35.8016 13.4804 35.81 13.4813 35.8174L13.4239 35.9757L13.4247 36.0417L13.4428 36.1547C13.451 36.2091 13.461 36.2538 13.473 36.2889C13.485 36.3239 13.5026 36.3583 13.5258 36.3919L13.5163 36.4365C13.5066 36.4592 13.5021 36.4736 13.5029 36.4798C13.5038 36.4872 13.5087 36.4961 13.5176 36.5063C13.5561 36.5116 13.5747 36.5144 13.5735 36.5145C13.5857 36.5218 13.6072 36.5425 13.638 36.5764L13.697 36.6391C13.7001 36.6437 13.7033 36.649 13.7065 36.6549C13.7098 36.6608 13.7146 36.6684 13.7208 36.6777L13.7636 36.6724L13.7899 36.7013L13.9238 36.7735L13.9816 36.8118L14.0453 36.8228L14.1019 36.8366L14.1861 36.83L14.4029 36.8259C14.4056 36.8268 14.4076 36.8278 14.409 36.8289C14.4102 36.8287 14.4109 36.8287 14.4109 36.8287C14.4319 36.8261 14.4737 36.8026 14.5361 36.7584L14.5731 36.7671L14.6902 36.6619C14.7231 36.6528 14.7542 36.6351 14.7837 36.6088C14.8131 36.5825 14.8515 36.5375 14.8988 36.4737C14.9125 36.4519 14.9267 36.44 14.9416 36.4382C14.9515 36.437 14.9607 36.4396 14.9691 36.4462C14.9774 36.4527 14.9823 36.4615 14.9838 36.4727ZM17.1381 35.606L17.0962 35.6036L17.1091 35.6455L17.0701 35.6805C17.0791 35.7021 17.0858 35.7151 17.0901 35.7196C17.0957 35.7239 17.1085 35.7305 17.1286 35.7394L17.137 35.7761C17.1541 35.9113 17.1206 36.0641 17.0363 36.2344C17.0172 36.2721 16.9926 36.3122 16.9628 36.355C16.9329 36.3977 16.9144 36.4258 16.9073 36.4393L16.8534 36.461L16.5224 36.6682L16.3298 36.6995L16.1929 36.7523L16.0249 36.7692L15.9691 36.7912L15.7979 36.7821L15.7286 36.7869L15.6859 36.7487L15.5798 36.7467L15.5281 36.7266C15.4819 36.6996 15.4431 36.6773 15.4119 36.6598C15.3806 36.641 15.3602 36.629 15.3507 36.6239C15.3423 36.6173 15.3351 36.6107 15.3292 36.6038L15.2782 36.5289L15.2146 36.4895L15.1551 36.3779L15.1324 36.3334L15.151 36.316C15.1488 36.2986 15.1498 36.2866 15.154 36.2797C15.1582 36.2729 15.1685 36.2654 15.1851 36.257L15.1702 36.2286L15.1038 36.1971L15.0941 36.1209C15.0874 36.0676 15.0869 36.0141 15.0927 35.9605C15.0985 35.9069 15.1126 35.844 15.135 35.772C15.1695 35.6569 15.1976 35.5905 15.2193 35.5727L15.2893 35.513L15.321 35.4354C15.3326 35.4076 15.3484 35.388 15.3684 35.3767L15.5315 35.2621L15.62 35.1699L15.7334 35.1106L15.9327 35.0123L16.1038 34.9761L16.2392 34.9556C16.3161 34.9461 16.3573 34.9624 16.3626 35.0046C16.386 35.0206 16.4009 35.0282 16.4071 35.0274C16.4257 35.0251 16.4439 35.0046 16.4616 34.9659L16.5096 34.9713L16.636 34.9992L16.6914 35.0339L16.7657 35.0682L16.848 35.1657C16.8695 35.187 16.9076 35.1942 16.9622 35.1875C17.0039 35.2277 17.0336 35.2687 17.0515 35.3106C17.0694 35.3525 17.0932 35.4308 17.1229 35.5455L17.1381 35.606ZM16.8742 35.6858L16.7782 35.4804L16.755 35.3869L16.7319 35.3538L16.7208 35.3552C16.7109 35.3564 16.7026 35.3556 16.6959 35.3526C16.6892 35.3497 16.6809 35.3438 16.671 35.3349L16.5654 35.2327L16.5297 35.1899L16.3642 35.1366C16.3462 35.1137 16.3309 35.0973 16.3183 35.0875C16.3068 35.0763 16.2936 35.0717 16.2787 35.0735C16.2626 35.0755 16.2379 35.0848 16.2048 35.1015C16.1682 35.0909 16.1418 35.0866 16.1257 35.0886L16.0726 35.1027L15.9819 35.1177L15.8613 35.1798L15.8282 35.1575L15.8096 35.19L15.6928 35.2819L15.4856 35.5115L15.4459 35.556C15.444 35.6205 15.4247 35.6966 15.3879 35.7842L15.3675 35.8321L15.3694 35.847C15.3728 35.8743 15.3708 35.8928 15.3632 35.9025C15.3556 35.9123 15.339 35.9206 15.3135 35.9276C15.311 35.948 15.3097 35.9576 15.3095 35.9564C15.3111 35.9587 15.312 35.9611 15.3124 35.9636C15.3138 35.9647 15.3145 35.9658 15.3147 35.9671L15.3806 36.0251L15.3933 36.0651C15.3589 36.1021 15.3424 36.1261 15.3438 36.1373C15.3438 36.1373 15.3472 36.1444 15.3541 36.1587C15.3637 36.1449 15.3734 36.1374 15.3834 36.1362C15.3945 36.1348 15.4024 36.1376 15.4071 36.1446L15.4674 36.277L15.5821 36.4215L15.5829 36.5177C15.5941 36.5264 15.6059 36.53 15.6183 36.5285C15.6332 36.5266 15.6478 36.5173 15.662 36.5004L15.7006 36.507L15.9432 36.6168L16.175 36.6109L16.3076 36.6134L16.4513 36.5692L16.5452 36.535L16.6506 36.3973L16.7348 36.3604L16.7717 36.3087L16.8444 36.0919L16.8892 36.0429C16.9044 36.0234 16.9112 36.0074 16.9096 35.995L16.9084 35.9857L16.8676 35.902L16.8742 35.6858ZM19.2349 36.1784L19.2231 36.2347L18.9818 36.3891C18.9414 36.3488 18.9205 36.323 18.9191 36.3119L18.9179 36.3026L18.94 36.1185L18.9336 36.038L18.9489 36.0399L18.9758 35.9988C18.9646 35.98 18.9543 35.9681 18.9448 35.963C18.9366 35.9577 18.9214 35.952 18.8992 35.9459L18.888 35.9171L18.8737 35.5656L18.8489 35.5195L18.8449 35.4577L18.827 35.3163L18.8406 35.2447L18.8028 35.2154L18.7924 35.1033C18.7736 35.064 18.7457 35.0278 18.7087 34.9946L18.7063 34.976C18.7043 34.9599 18.6978 34.9487 18.687 34.9425L18.64 34.9445L18.5378 34.8986L18.3864 34.9267L18.2098 34.9353C18.1958 34.9446 18.1811 34.9621 18.1654 34.988L18.131 34.9847L17.9891 35.0286L17.9385 35.0462L17.8797 35.1045L17.8007 35.152C17.7622 35.1769 17.7431 35.2095 17.7431 35.2498L17.7625 35.4326L17.7527 35.549L17.8059 35.6558L17.8135 35.7153L17.8378 35.9371L17.8121 36.0178L17.8119 36.0461L17.8133 36.0573L17.8562 36.1124L17.8931 36.3138L17.9163 36.3771C17.9172 36.3845 17.9147 36.3949 17.9089 36.4082C17.9028 36.4203 17.8939 36.4296 17.8821 36.4361L17.7631 36.481L17.7306 36.4926C17.7149 36.5285 17.6978 36.5476 17.6792 36.5499C17.6668 36.5515 17.6529 36.5462 17.6376 36.5343C17.636 36.532 17.6338 36.5297 17.631 36.5275C17.6295 36.5252 17.6273 36.523 17.6245 36.5208C17.6183 36.5115 17.6153 36.5081 17.6156 36.5105L17.6261 36.3694L17.6026 36.2137L17.6132 36.1481L17.5851 36.0458L17.5782 35.9314L17.5515 35.691C17.5474 35.6587 17.5668 35.6381 17.6098 35.629C17.6026 35.6022 17.5936 35.5863 17.5829 35.5813C17.5733 35.5749 17.553 35.5737 17.522 35.5775L17.4832 35.2422L17.5209 35.2111L17.4936 35.1748L17.4261 35.0452L17.3872 35.0066L17.4044 34.9629L17.4376 34.9116L17.5008 34.8735L17.5595 34.8153C17.5763 34.7981 17.5983 34.7878 17.6256 34.7845C17.6417 34.7825 17.6578 34.7855 17.674 34.7936C17.69 34.8004 17.6999 34.8093 17.7038 34.8201L17.7297 34.9945L17.7444 35.0513L17.7784 35.0358C17.8161 34.9757 17.8618 34.9184 17.9153 34.8639C17.97 34.8081 18.0122 34.7783 18.042 34.7746C18.0581 34.7726 18.0728 34.784 18.086 34.8089C18.1099 34.7984 18.1372 34.7805 18.1681 34.7553C18.2015 34.731 18.2307 34.7173 18.2555 34.7143L18.2666 34.7129L18.4211 34.7089L18.4764 34.6832L18.6505 34.6844C18.7097 34.6846 18.7582 34.6994 18.796 34.7288L18.8215 34.7218C18.8612 34.7169 18.8963 34.7302 18.9268 34.7618L18.9606 34.8048L19.0056 34.8616C19.0256 34.8805 19.04 34.9247 19.0488 34.9942L19.062 35.0983L19.0751 35.1421L19.0378 35.2052L19.0586 35.2499L19.0861 35.2881L19.0915 35.3309L19.0958 35.3643C19.097 35.3743 19.0967 35.3819 19.0949 35.3871L19.0757 35.4443C19.0719 35.4548 19.0717 35.4731 19.075 35.4991L19.1184 35.5429L19.1215 35.5973L19.1343 35.728L19.1362 35.7429L19.1733 35.812L19.1982 35.9789L19.2349 36.1784ZM20.6625 32.6054L20.6493 32.6505L20.5994 32.719L20.5632 32.7763L20.5189 32.8139L20.4719 32.8462L20.3017 32.7859C20.2383 32.7623 20.1892 32.7526 20.1544 32.7569C20.1222 32.7609 20.0708 32.783 20.0003 32.8232C19.9257 32.8613 19.8774 32.9277 19.8554 33.0224L19.8203 33.1779L19.7905 33.2703L19.78 33.3963L19.7535 33.4412L19.7715 33.4937L19.7934 33.5024L19.8339 33.896L19.8025 33.9471L19.8091 33.9992L19.8108 34.0424L19.8713 34.1464L19.8642 34.2248L19.904 34.405L19.9052 34.4143C19.9088 34.4428 19.8922 34.4757 19.8554 34.513L19.8675 34.5493C19.9122 34.5639 19.9371 34.5766 19.9423 34.5873L19.9626 34.6585C19.9648 34.6758 19.9808 34.6827 20.0106 34.679L20.0687 34.6756L20.273 34.6617L20.419 34.621L20.5772 34.5864L20.6579 34.5519L20.7021 34.5426L20.7746 34.5337L20.8308 34.6042L20.7915 34.6374L20.6649 34.7418L20.602 34.8119L20.4105 34.8072L20.2193 34.8497C20.1933 34.8529 20.1686 34.8522 20.1453 34.8475C20.0799 34.8379 20.0403 34.834 20.0267 34.8357C20.0093 34.8378 19.9951 34.8497 19.9839 34.8712C19.9728 34.8927 19.9686 34.914 19.9712 34.9351L19.9726 34.9463L20.0378 35.2216L20.0383 35.2253C20.0398 35.2377 20.0261 35.2533 19.9969 35.272C19.9954 35.2999 19.9944 35.312 19.994 35.3083C19.9963 35.3269 20.0124 35.3494 20.0422 35.376L20.06 35.4267L20.0987 35.6429L20.1233 35.7174L20.1038 35.7424C20.0914 35.744 20.0826 35.7438 20.0773 35.7419C20.0588 35.7556 20.0492 35.7737 20.0483 35.7965L20.0669 35.7942L20.0651 35.8096L20.1277 35.8717L20.1336 35.9182L20.1328 35.9712L20.1461 36.0168L20.163 36.0601L20.1316 36.081L20.1382 36.133L19.9799 36.2263L19.8334 36.2632L19.8068 36.2476L19.8045 36.229L19.8195 36.1837L19.8182 36.0535L19.8378 35.9699L19.8383 35.8848L19.8149 35.7894C19.844 35.7506 19.8566 35.7157 19.8527 35.6846L19.8456 35.6591L19.7901 35.5337L19.7886 35.5225L19.7707 35.3509L19.7385 35.0224L19.74 34.975C19.7974 34.9603 19.8244 34.9394 19.8209 34.9121C19.8189 34.896 19.811 34.8888 19.7974 34.8904L19.7257 34.8917L19.661 34.8733L19.5735 34.8841L19.5112 34.8842L19.4716 34.8853C19.4493 34.8881 19.4312 34.8941 19.4172 34.9034C19.3791 34.9207 19.3569 34.9297 19.3507 34.9305C19.3296 34.9331 19.3177 34.9232 19.3148 34.9009C19.3136 34.891 19.3157 34.8825 19.3211 34.8756L19.3517 34.8189L19.4095 34.723C19.4248 34.7047 19.448 34.6936 19.479 34.6898C19.5001 34.6872 19.5299 34.6892 19.5686 34.6958L19.6604 34.6296L19.6538 34.6078L19.6569 34.4827L19.6244 34.2865C19.6234 34.2488 19.6338 34.216 19.6554 34.1882L19.5829 34.1083L19.5815 34.0669L19.5182 33.6572C19.5133 33.6188 19.5187 33.5816 19.5343 33.5457L19.5855 33.4279C19.5841 33.4167 19.5685 33.4029 19.5387 33.3864C19.5399 33.2969 19.5683 33.1976 19.6238 33.0888C19.6804 32.9785 19.746 32.8948 19.8207 32.8378L20.0354 32.6677L20.0814 32.628L20.1437 32.6127L20.2625 32.566L20.3263 32.577L20.4654 32.556C20.4891 32.5544 20.511 32.558 20.531 32.5668C20.5523 32.5755 20.5783 32.5919 20.609 32.6158C20.6177 32.6046 20.6257 32.5986 20.6332 32.5977C20.6406 32.5968 20.6504 32.5993 20.6625 32.6054ZM22.8517 35.4732C22.8538 35.4893 22.8525 35.5039 22.8479 35.5171L22.8189 35.5868L22.7505 35.7482L22.6712 35.7637L22.6262 35.8108C22.6164 35.8234 22.5981 35.8332 22.5713 35.8403L22.2446 35.9467L22.1948 35.9718L22.0743 35.9753L21.905 36.0113L21.7101 36.024L21.6561 36.0307C21.6261 36.013 21.6078 36.0027 21.6011 35.9997L21.4105 35.9571L21.3418 35.907L21.2102 35.8382L21.0972 35.7218L21.056 35.6948C21.0671 35.6632 21.0712 35.6356 21.0682 35.6121C21.0669 35.6022 21.0635 35.595 21.0579 35.5907L20.9975 35.5169L20.9729 35.4122L20.9584 35.3271C20.9547 35.2986 20.9568 35.2599 20.9644 35.2111C20.9761 35.1341 20.9878 35.0873 20.9996 35.0708L21.0573 34.9749L21.0826 34.8905L21.1594 34.796L21.2385 34.6597L21.3164 34.6028L21.4267 34.5042L21.4999 34.4404L21.5255 34.4183L21.5799 34.4003L21.7424 34.3254L21.8726 34.2942L21.9484 34.2509L21.987 34.2423C22.0503 34.2345 22.1079 34.262 22.16 34.3249C22.1832 34.3195 22.199 34.3043 22.2071 34.2794L22.2628 34.316L22.3364 34.3447L22.512 34.4779C22.535 34.5003 22.5526 34.5201 22.5649 34.5375C22.5783 34.5535 22.5912 34.5708 22.6036 34.5894C22.6173 34.6079 22.6294 34.6284 22.6398 34.6511C22.6515 34.6735 22.6684 34.708 22.6907 34.7543L22.7115 34.799L22.6938 34.8087L22.6194 34.8028L22.5426 34.8387L22.4798 34.8352L22.4133 34.8623L22.2812 34.8635L22.1574 34.8863L22.0243 34.8801L21.8127 34.91L21.708 34.9191L21.461 34.9836L21.3694 34.9911L21.2475 35.0439L21.2041 35.0588L21.2023 35.1043C21.2037 35.1356 21.2021 35.1572 21.1973 35.1692C21.1925 35.1811 21.1805 35.1958 21.1613 35.2133L21.1695 35.2482C21.2143 35.2741 21.2385 35.2907 21.2419 35.2978L21.3143 35.4816L21.3444 35.5251C21.3336 35.539 21.3288 35.5509 21.3301 35.5609C21.3301 35.5609 21.3301 35.5615 21.3303 35.5627C21.3317 35.5638 21.3332 35.5655 21.3347 35.5678L21.4083 35.5814L21.4309 35.6259C21.4488 35.6677 21.4683 35.6924 21.4894 35.6999L21.5951 35.7284L21.6378 35.7968C21.6563 35.8033 21.685 35.8067 21.7241 35.8069L21.7563 35.8521L21.8149 35.8524L21.9823 35.8903L22.113 35.8477L22.4592 35.7464L22.5296 35.6905L22.6395 35.6033L22.7219 35.4627C22.7366 35.4395 22.7557 35.4264 22.7793 35.4235C22.8227 35.4182 22.8469 35.4347 22.8517 35.4732ZM22.3015 34.6512C22.299 34.6314 22.2708 34.5927 22.2169 34.5351L22.0767 34.458L22.0282 34.4186L21.9663 34.4225L21.8235 34.4288L21.791 34.4403L21.7166 34.4949L21.6173 34.5317L21.4932 34.5961L21.4453 34.6209L21.3971 34.7175C21.3631 34.7482 21.3447 34.7668 21.3418 34.7735L21.3372 34.7967L21.5682 34.7852L21.5938 34.7783L21.6349 34.76L21.677 34.7642L21.7896 34.773L21.7952 34.7723L21.9171 34.7346L21.955 34.7205L21.9902 34.7596L22.033 34.7543L22.1925 34.7006L22.2604 34.6998C22.291 34.6922 22.3047 34.676 22.3015 34.6512ZM24.7794 35.2635C24.7804 35.271 24.7799 35.2773 24.7781 35.2826L24.7677 35.3802C24.7679 35.3815 24.7681 35.3833 24.7685 35.3858C24.77 35.3881 24.7716 35.3911 24.7734 35.3947L24.7058 35.5031L24.661 35.5219L24.5945 35.5792L24.5657 35.5903L24.4874 35.6434L24.4799 35.6444L24.3604 35.6553C24.3393 35.6579 24.3112 35.6702 24.2762 35.6922L24.1881 35.7578L24.0407 35.7874L23.8904 35.7946L23.8534 35.7708L23.7417 35.7695L23.6146 35.7512L23.4385 35.7332L23.3497 35.6743L23.2677 35.6088L23.2818 35.541C23.2595 35.5538 23.2384 35.5614 23.2186 35.5639L23.2037 35.5657L23.1652 35.5308L23.1086 35.4566L23.0783 35.4263L23.0537 35.3217L23.0617 35.2659L23.0431 35.2379L22.9985 35.2L23.0107 35.1021L22.9797 34.9322L23.0307 34.8125L23.09 34.6389L23.1831 34.5387L23.3466 34.3371L23.3956 34.2914L23.4615 34.2303L23.4936 34.215L23.5626 34.148L23.793 34.0421L23.8488 34.0201C23.8513 34.0198 23.8532 34.0202 23.8546 34.0212C23.8571 34.0209 23.859 34.0213 23.8604 34.0224L23.9605 34.0516L24.0521 34.0139L24.2346 34.0216L24.3843 33.9804C24.4036 33.9831 24.425 33.988 24.4486 33.9952C24.4437 34.0361 24.4359 34.0641 24.4252 34.0793C24.4156 34.0931 24.3932 34.1103 24.358 34.131L24.3595 34.1724L24.2891 34.2283L24.2384 34.261L24.231 34.2619L24.1798 34.2607L24.1175 34.276L23.8253 34.2667C23.815 34.2654 23.8006 34.266 23.782 34.2682C23.7646 34.2704 23.7524 34.2732 23.7452 34.2766L23.5927 34.3256L23.5424 34.3318C23.5012 34.3445 23.4638 34.3825 23.4303 34.4458L23.3538 34.4836L23.3281 34.5642L23.2662 34.5832C23.2725 34.5925 23.276 34.6009 23.277 34.6083L23.2195 34.7665L23.2204 34.8325L23.2385 34.9456C23.2466 35 23.2567 35.0447 23.2687 35.0797C23.2807 35.1148 23.2983 35.1491 23.3214 35.1828L23.312 35.2274C23.3023 35.25 23.2978 35.2644 23.2986 35.2706C23.2995 35.2781 23.3044 35.2869 23.3133 35.2972C23.3517 35.3025 23.3704 35.3052 23.3691 35.3054C23.3814 35.3127 23.4029 35.3333 23.4337 35.3673L23.4926 35.4299C23.4957 35.4346 23.4989 35.4399 23.5022 35.4458C23.5055 35.4517 23.5102 35.4593 23.5164 35.4686L23.5592 35.4633L23.5856 35.4921L23.7195 35.5644L23.7772 35.6026L23.841 35.6136L23.8976 35.6274L23.9818 35.6208L24.1986 35.6167C24.2012 35.6177 24.2033 35.6187 24.2047 35.6198C24.2059 35.6196 24.2065 35.6195 24.2065 35.6195C24.2276 35.6169 24.2694 35.5935 24.3318 35.5493L24.3688 35.5579L24.4859 35.4528C24.5188 35.4437 24.5499 35.426 24.5793 35.3997C24.6088 35.3734 24.6471 35.3284 24.6945 35.2646C24.7081 35.2428 24.7224 35.2309 24.7372 35.2291C24.7472 35.2279 24.7563 35.2305 24.7647 35.237C24.7731 35.2435 24.778 35.2524 24.7794 35.2635ZM26.0906 33.8133L26.0786 33.8676L26.0798 33.9072L25.9583 34.0223L25.8875 34.1047L25.8419 34.1179L25.7721 34.1189C25.7256 34.1197 25.6825 34.118 25.643 34.1141C25.6045 34.1088 25.5865 34.106 25.589 34.1057L25.5853 34.1061L25.4618 34.1308L25.3875 34.1267C25.3705 34.1314 25.3565 34.14 25.3455 34.1527C25.3356 34.164 25.3314 34.1759 25.333 34.1883C25.3347 34.2019 25.3432 34.2097 25.3586 34.2116L25.3853 34.452C25.3338 34.4734 25.3101 34.4997 25.314 34.5307L25.3231 34.573L25.4013 34.5785L25.4314 34.7561L25.4401 34.7947L25.4285 34.8528C25.4127 34.8472 25.3998 34.845 25.3899 34.8462C25.3589 34.8501 25.3452 34.8662 25.3488 34.8948C25.3504 34.9072 25.3627 34.9252 25.3859 34.9488C25.4006 34.9255 25.411 34.9135 25.4172 34.9128C25.421 34.9123 25.4346 34.9201 25.458 34.9361L25.4935 35.1867L25.5057 35.223L25.5596 35.3052C25.563 35.3123 25.567 35.3338 25.5716 35.3698C25.6049 35.3846 25.63 35.3934 25.6468 35.3964C25.6648 35.3992 25.6886 35.3988 25.7184 35.3951C25.7581 35.3902 25.7963 35.3786 25.8331 35.3602C25.871 35.3417 25.9005 35.3204 25.9214 35.2964L26.0844 35.1063C26.0907 35.0967 26.1001 35.0911 26.1125 35.0896C26.1274 35.0877 26.1501 35.0931 26.1807 35.1057L26.1747 35.148C26.1617 35.2541 26.1469 35.3114 26.1303 35.3197L25.7133 35.5337L25.6419 35.5822L25.5798 35.5539L25.5398 35.5513L25.5275 35.6038L25.4945 35.6117C25.4573 35.6163 25.4116 35.6037 25.3574 35.5738C25.2999 35.5381 25.268 35.5099 25.2616 35.4893L25.2436 35.4367L25.2133 35.3762L25.2038 35.2716L25.1889 35.1544L25.2106 35.0271L25.1938 34.9838L25.1781 34.9196L25.1727 34.8768L25.1575 34.6973L25.1474 34.6476L25.1319 34.5853C25.1313 34.5803 25.1322 34.5777 25.1347 34.5774L25.1758 34.5137C25.1809 34.5043 25.183 34.4965 25.1823 34.4903C25.1786 34.4617 25.1551 34.4502 25.1117 34.4555L25.094 34.435C25.0949 34.343 25.0896 34.2517 25.0782 34.1612C25.017 34.1561 24.9716 34.1554 24.9418 34.1591C24.8649 34.1686 24.789 34.1912 24.7142 34.2269C24.7031 34.2194 24.697 34.2107 24.6957 34.2008C24.6931 34.1797 24.6963 34.1655 24.7054 34.158L24.7702 34.0877L24.776 34.0435C24.7784 34.0332 24.7836 34.0243 24.7915 34.0171C24.7994 34.0098 24.8059 34.0058 24.8108 34.0052L25.0257 33.9711L25.075 33.9575L25.0659 33.9152L25.0045 33.5204L24.9445 33.4201L24.9261 33.3638C24.9567 33.3071 24.9892 33.2653 25.0236 33.2384C25.058 33.2115 25.1037 33.1895 25.1607 33.1723C25.1807 33.1308 25.2 33.1089 25.2186 33.1066C25.2521 33.1025 25.276 33.1569 25.2903 33.2697C25.3119 33.4408 25.3118 33.5643 25.2899 33.64C25.279 33.693 25.2649 33.7206 25.2475 33.7227L25.2586 33.8102C25.2772 33.8079 25.2898 33.8082 25.2965 33.8111C25.303 33.8129 25.3114 33.8194 25.3217 33.8307L25.3171 33.8842L25.33 33.926L25.3695 33.9249L25.5608 33.9429C25.5763 33.946 25.5971 33.946 25.6232 33.9427C25.6504 33.9394 25.6694 33.9345 25.6799 33.9282L25.7496 33.8969L25.8873 33.8648L25.9903 33.8124L26.0275 33.8078L26.0424 33.806L26.0852 33.8007C26.0889 33.8103 26.0907 33.8145 26.0906 33.8133ZM26.6171 32.7338C26.6206 32.761 26.6161 32.7799 26.6035 32.7902L26.4802 32.9056L26.433 32.9662L26.3429 33.0453C26.2833 33.1018 26.2466 33.1309 26.233 33.1326C26.2268 33.1333 26.2195 33.1305 26.2111 33.1239C26.2038 33.116 26.1996 33.1077 26.1985 33.099C26.1949 33.0705 26.1996 33.0479 26.2126 33.0312L26.3811 32.8252L26.466 32.6749C26.48 32.6657 26.4963 32.6599 26.5149 32.6576C26.5397 32.6545 26.5619 32.6606 26.5814 32.6758C26.6021 32.6896 26.614 32.7089 26.6171 32.7338ZM26.6304 33.7334C26.6135 33.7884 26.606 33.8384 26.6079 33.8835L26.6201 34.0691L26.5927 34.1367C26.593 34.1392 26.5927 34.1417 26.5918 34.1443C26.5921 34.1468 26.5919 34.15 26.5911 34.1539C26.5932 34.17 26.6109 34.1854 26.6443 34.2002L26.6441 34.2588L26.6899 34.6197L26.7192 34.9108L26.7608 35.0303L26.7688 35.0936L26.7923 35.2191C26.7885 35.2385 26.754 35.2799 26.689 35.3433L26.6051 35.4274C26.5923 35.4453 26.5747 35.4557 26.5524 35.4584C26.5362 35.4604 26.5213 35.4572 26.5077 35.4488C26.494 35.4405 26.4865 35.4307 26.4851 35.4195C26.481 35.3873 26.4861 35.3482 26.5005 35.3024L26.5085 35.2466L26.4875 35.2303L26.4758 34.9143L26.483 34.8813L26.5304 34.8679L26.5229 34.8084C26.518 34.77 26.5113 34.7418 26.5027 34.724C26.4942 34.7062 26.4755 34.6833 26.4468 34.6553L26.4427 34.5935L26.4413 34.5823L26.4336 34.5512C26.4284 34.5102 26.4312 34.4727 26.442 34.4387L26.4119 34.4103L26.4027 34.3075C26.4188 34.2954 26.4261 34.2832 26.4245 34.2708L26.4168 34.2396L26.3619 34.2389L26.3548 34.183L26.3522 34.1324L26.3425 34.0561C26.3382 34.0226 26.3314 33.9983 26.3219 33.9831C26.3136 33.9677 26.2966 33.9522 26.2706 33.9365C26.2813 33.8911 26.3131 33.8488 26.366 33.8095L26.5317 33.6851C26.5657 33.6847 26.5986 33.7008 26.6304 33.7334ZM29.111 34.1281L29.0691 34.1257L29.082 34.1676L29.043 34.2026C29.052 34.2242 29.0587 34.2372 29.063 34.2417C29.0686 34.2461 29.0814 34.2527 29.1015 34.2615L29.1099 34.2983C29.127 34.4334 29.0935 34.5862 29.0092 34.7566C28.99 34.7942 28.9655 34.8344 28.9357 34.8771C28.9058 34.9198 28.8873 34.9479 28.8802 34.9614L28.8263 34.9832L28.4953 35.1903L28.3027 35.2216L28.1658 35.2744L27.9978 35.2914L27.942 35.3134L27.7708 35.3043L27.7014 35.3091L27.6588 35.2709L27.5527 35.2688L27.501 35.2488C27.4548 35.2217 27.416 35.1994 27.3848 35.1819C27.3535 35.1631 27.333 35.1511 27.3236 35.146C27.3152 35.1395 27.308 35.1328 27.3021 35.126L27.251 35.051L27.1875 35.0117L27.128 34.9L27.1053 34.8555L27.1239 34.8381C27.1217 34.8208 27.1227 34.8087 27.1269 34.8019C27.131 34.7951 27.1414 34.7875 27.158 34.7791L27.1431 34.7508L27.0767 34.7193L27.067 34.643C27.0603 34.5897 27.0598 34.5362 27.0656 34.4826C27.0714 34.429 27.0855 34.3662 27.1079 34.2941C27.1424 34.179 27.1705 34.1126 27.1922 34.0948L27.2621 34.0352L27.2939 33.9576C27.3055 33.9297 27.3213 33.9101 27.3413 33.8988L27.5044 33.7842L27.5929 33.6921L27.7063 33.6327L27.9055 33.5344L28.0767 33.4982L28.2121 33.4777C28.289 33.4682 28.3301 33.4845 28.3355 33.5267C28.3589 33.5427 28.3738 33.5503 28.38 33.5496C28.3986 33.5473 28.4168 33.5268 28.4345 33.488L28.4825 33.4935L28.6088 33.5213L28.6643 33.556L28.7385 33.5903L28.8208 33.6878C28.8424 33.7091 28.8805 33.7164 28.9351 33.7096C28.9767 33.7498 29.0065 33.7909 29.0244 33.8327C29.0423 33.8746 29.0661 33.9529 29.0958 34.0676L29.111 34.1281ZM28.8471 34.2079L28.7511 34.0025L28.7279 33.909L28.7048 33.876L28.6937 33.8773C28.6837 33.8786 28.6754 33.8777 28.6688 33.8748C28.6621 33.8718 28.6538 33.8659 28.6438 33.857L28.5383 33.7548L28.5026 33.712L28.3371 33.6588C28.3191 33.6358 28.3038 33.6194 28.2912 33.6096C28.2797 33.5985 28.2665 33.5938 28.2516 33.5956C28.2355 33.5976 28.2108 33.607 28.1777 33.6236C28.141 33.6131 28.1147 33.6088 28.0985 33.6107L28.0455 33.6248L27.9548 33.6398L27.8342 33.7019L27.8011 33.6796L27.7825 33.7121L27.6657 33.804L27.4585 34.0336L27.4188 34.0782C27.4169 34.1426 27.3976 34.2187 27.3608 34.3064L27.3404 34.3542L27.3423 34.3691C27.3457 34.3964 27.3437 34.4149 27.3361 34.4247C27.3285 34.4344 27.3119 34.4427 27.2863 34.4497C27.2839 34.4701 27.2826 34.4797 27.2824 34.4785C27.284 34.4808 27.2849 34.4832 27.2852 34.4857C27.2866 34.4868 27.2874 34.488 27.2876 34.4892L27.3535 34.5472L27.3661 34.5872C27.3318 34.6242 27.3153 34.6483 27.3167 34.6594C27.3167 34.6594 27.3201 34.6666 27.327 34.6808C27.3366 34.667 27.3463 34.6595 27.3563 34.6583C27.3674 34.6569 27.3753 34.6597 27.38 34.6667L27.4402 34.7991L27.555 34.9436L27.5558 35.0399C27.567 35.0486 27.5788 35.0521 27.5912 35.0506C27.6061 35.0488 27.6206 35.0394 27.6349 35.0225L27.6735 35.0291L27.9161 35.139L28.1478 35.133L28.2805 35.1356L28.4242 35.0914L28.5181 35.0571L28.6235 34.9194L28.7077 34.8826L28.7446 34.8308L28.8173 34.614L28.8621 34.565C28.8773 34.5455 28.8841 34.5296 28.8825 34.5172L28.8813 34.5079L28.8404 34.4241L28.8471 34.2079ZM31.2077 34.7006L31.196 34.7568L30.9547 34.9113C30.9143 34.8709 30.8934 34.8451 30.892 34.834L30.8908 34.8247L30.9129 34.6406L30.9064 34.5602L30.9218 34.562L30.9487 34.5209C30.9375 34.5022 30.9272 34.4902 30.9177 34.4851C30.9095 34.4798 30.8943 34.4741 30.8721 34.468L30.8609 34.4392L30.8466 34.0877L30.8218 34.0416L30.8178 33.9798L30.7998 33.8384L30.8135 33.7668L30.7757 33.7375L30.7653 33.6254C30.7465 33.5862 30.7186 33.5499 30.6816 33.5167L30.6792 33.4981C30.6772 33.482 30.6707 33.4708 30.6599 33.4646L30.6129 33.4666L30.5107 33.4207L30.3592 33.4488L30.1827 33.4574C30.1687 33.4667 30.1539 33.4842 30.1383 33.5101L30.1039 33.5068L29.962 33.5508L29.9113 33.5683L29.8526 33.6266L29.7736 33.6741C29.7351 33.699 29.7159 33.7316 29.716 33.7719L29.7354 33.9547L29.7256 34.0711L29.7788 34.1779L29.7864 34.2374L29.8107 34.4593L29.785 34.5399L29.7848 34.5682L29.7862 34.5794L29.8291 34.6346L29.866 34.8359L29.8891 34.8992C29.8901 34.9067 29.8876 34.917 29.8817 34.9303C29.8757 34.9424 29.8668 34.9517 29.855 34.9582L29.736 35.0031L29.7034 35.0147C29.6878 35.0506 29.6707 35.0698 29.6521 35.072C29.6397 35.0736 29.6258 35.0684 29.6104 35.0564C29.6089 35.0541 29.6067 35.0518 29.6039 35.0497C29.6024 35.0473 29.6002 35.0451 29.5974 35.0429C29.5912 35.0336 29.5882 35.0302 29.5885 35.0327L29.599 34.8916L29.5755 34.7358L29.5861 34.6702L29.558 34.5679L29.551 34.4535L29.5243 34.2131C29.5203 34.1809 29.5397 34.1602 29.5826 34.1511C29.5755 34.1243 29.5665 34.1084 29.5558 34.1034C29.5462 34.0971 29.5259 34.0958 29.4948 34.0996L29.4561 33.7643L29.4938 33.7332L29.4665 33.6969L29.399 33.5674L29.3601 33.5287L29.3773 33.485L29.4104 33.4337L29.4737 33.3957L29.5324 33.3374C29.5491 33.3202 29.5711 33.31 29.5984 33.3066C29.6146 33.3046 29.6307 33.3076 29.6469 33.3157C29.6628 33.3226 29.6728 33.3314 29.6767 33.3423L29.7026 33.5167L29.7173 33.5734L29.7513 33.5579C29.789 33.4978 29.8347 33.4405 29.8882 33.3861C29.9429 33.3302 29.9851 33.3004 30.0149 33.2967C30.031 33.2948 30.0457 33.3062 30.0589 33.331C30.0828 33.3205 30.1101 33.3026 30.141 33.2774C30.1744 33.2531 30.2036 33.2394 30.2284 33.2364L30.2395 33.235L30.394 33.2311L30.4493 33.2053L30.6234 33.2065C30.6826 33.2068 30.7311 33.2216 30.7688 33.2509L30.7944 33.244C30.8341 33.2391 30.8692 33.2524 30.8997 33.2839L30.9335 33.3269L30.9785 33.3837C30.9985 33.4027 31.0129 33.4469 31.0217 33.5163L31.0349 33.6205L31.048 33.6642L31.0107 33.7274L31.0315 33.772L31.059 33.8102L31.0644 33.853L31.0686 33.8865C31.0699 33.8964 31.0696 33.904 31.0678 33.9092L31.0485 33.9664C31.0448 33.9769 31.0446 33.9952 31.0479 34.0213L31.0913 34.065L31.0944 34.1194L31.1072 34.2501L31.1091 34.265L31.1462 34.3341L31.1711 34.501L31.2077 34.7006ZM33.2715 34.4458L33.2573 34.4835L33.2332 34.5318L33.1818 34.5589L33.1107 34.6092L33.041 34.6405C32.9974 34.6648 32.9719 34.6774 32.9645 34.6783C32.9558 34.6794 32.9465 34.6755 32.9366 34.6666C32.928 34.6589 32.9233 34.6513 32.9223 34.6438C32.9208 34.6314 32.9234 34.6028 32.9303 34.5578C32.935 34.5447 32.9372 34.5223 32.937 34.4909L32.9028 34.5197L32.7424 34.5961C32.711 34.6164 32.6785 34.6286 32.645 34.6327L32.6413 34.6332L32.5687 34.6421L32.4864 34.6939L32.4278 34.7086L32.2592 34.7654L32.1871 34.7629L32.1392 34.7877L32.1048 34.7995L32.0485 34.8027L31.9224 34.7918L31.8377 34.7947C31.7797 34.7943 31.7276 34.7812 31.6815 34.7554C31.6365 34.7282 31.6009 34.6911 31.5748 34.6439L31.5222 34.6315L31.5051 34.5864L31.4972 34.5534L31.46 34.4692L31.5114 34.323L31.526 34.2589C31.5314 34.2418 31.5513 34.2154 31.5859 34.1797L31.7159 34.0427L31.7745 34.0128L31.8714 33.9574C31.8727 33.9572 31.8752 33.9576 31.8791 33.9583C31.8828 33.9579 31.8866 33.958 31.8905 33.9588C31.9086 33.9024 31.9523 33.87 32.0218 33.8614L32.0316 33.8488L32.0706 33.844C32.0842 33.8222 32.0986 33.8066 32.1138 33.7971C32.129 33.7877 32.1584 33.7759 32.2019 33.7617L32.4294 33.6921L32.4992 33.691L32.5843 33.6616L32.7385 33.6256C32.7902 33.6066 32.8137 33.5779 32.8088 33.5394C32.8082 33.5345 32.8065 33.5309 32.8037 33.5287L32.7745 33.4473L32.774 33.3246C32.767 33.299 32.7553 33.2815 32.739 33.2722C32.7226 33.2616 32.6992 33.2563 32.669 33.2563L32.6375 33.2167C32.6045 33.1755 32.5786 33.1497 32.5597 33.1394C32.5406 33.1279 32.5062 33.1202 32.4566 33.1163L32.3474 33.1052L32.2446 33.1141L32.1953 33.1277C32.1835 33.1241 32.174 33.119 32.1669 33.1123C32.1597 33.1057 32.1534 33.0951 32.1478 33.0807L32.1003 33.1092L32.0495 33.1703L31.8787 33.2839C31.8429 33.3098 31.8201 33.3334 31.8102 33.3547L31.7888 33.3952C31.7789 33.4165 31.7634 33.4285 31.7424 33.4311L31.7042 33.4283L31.6469 33.4089L31.5878 33.4049C31.5684 33.401 31.5485 33.3927 31.528 33.3801C31.5075 33.3675 31.4965 33.3551 31.4949 33.3427C31.494 33.3352 31.4947 33.3313 31.4972 33.331L31.526 33.3048L31.5797 33.251L31.6434 33.2318L31.7356 33.1694L31.8533 33.1133L31.8858 33.1017L31.9604 33.049L32.027 33.0522L32.246 32.976L32.3414 32.968L32.4139 32.9591L32.4935 32.9757L32.7204 32.9911L32.7563 33.0056L32.7596 33.0316L32.7354 33.0497C32.7483 33.0922 32.7666 33.112 32.7902 33.1091C32.7925 33.1075 32.7943 33.1067 32.7955 33.1065C32.7966 33.1051 32.7984 33.1043 32.8009 33.104L32.8501 33.0752L32.8576 33.0743C32.87 33.0728 32.8788 33.078 32.8841 33.0899L32.9301 33.1542L32.9729 33.1791L32.9783 33.2219L32.9829 33.3177C32.9881 33.3586 33.0124 33.3915 33.0559 33.4163L33.115 33.6887L33.0735 33.7637L33.1397 33.8235L33.1464 33.8473L33.1574 34.0235L33.1893 34.1556L33.1931 34.1853L33.1985 34.2281L33.1734 34.2388C33.1798 34.2695 33.1842 34.2891 33.1865 34.2976C33.1889 34.3061 33.1948 34.3186 33.2045 34.3351C33.214 34.3503 33.2251 34.3684 33.2379 34.3895L33.2715 34.4458ZM32.9345 34.1587C32.9139 34.1449 32.9004 34.1327 32.894 34.1221L32.8918 34.0449L32.8552 33.8756L32.8712 33.8227L32.8074 33.7965L32.7767 33.8079L32.6041 33.8178L32.5245 33.8314L32.4577 33.7962L32.4233 33.8232L32.3214 33.8395L32.2524 33.8764L32.2065 33.8575L32.1584 33.8955L31.8963 34.0639L31.8405 34.1161L31.8013 34.1947L31.7412 34.2418C31.7325 34.2529 31.7289 34.2647 31.7305 34.2771C31.7305 34.2771 31.7306 34.2777 31.7307 34.2789C31.7321 34.28 31.7336 34.2817 31.7352 34.2841L31.7529 34.3045L31.7513 34.3217L31.8134 34.4841L31.7859 34.5952L31.8204 34.6287L31.8631 34.563C31.8824 34.5757 31.9001 34.5861 31.9162 34.5942C31.9324 34.6023 31.9515 34.6088 31.9735 34.6136C31.9954 34.6172 32.0229 34.6207 32.0561 34.6242L32.1018 34.6714L32.2318 34.6686L32.2627 34.6289L32.3023 34.6429L32.3265 34.6248L32.3455 34.6111C32.3765 34.6174 32.3945 34.6202 32.3995 34.6196C32.4367 34.615 32.4829 34.5916 32.5381 34.5496C32.5415 34.5466 32.5461 34.5435 32.552 34.5403C32.5577 34.5358 32.5663 34.5291 32.5778 34.5201C32.6894 34.5063 32.7603 34.4743 32.7905 34.4239L32.8216 34.371L32.9031 34.2835L32.904 34.2607L32.8972 34.237C32.915 34.2285 32.9259 34.2196 32.9297 34.2103C32.9336 34.201 32.9352 34.1838 32.9345 34.1587ZM34.8168 32.8004C34.8176 32.8066 34.8158 32.8125 34.8115 32.818L34.716 32.9148L34.6659 32.9815L34.634 32.9986L34.5798 32.9732L34.542 32.9439L34.4299 32.9539L34.3184 32.9242L34.2761 32.9181C34.2634 32.9474 34.2489 32.9668 34.2324 32.9764C34.2158 32.9848 34.1809 32.9922 34.1275 32.9988L34.0694 33.0324L34.021 33.0233L33.9876 33.0576L33.8533 33.1913C33.8326 33.2266 33.8259 33.2879 33.8332 33.3752L33.8474 33.517L33.8097 33.5481C33.8399 33.5872 33.8575 33.6266 33.8625 33.6663L33.8904 33.6628L33.9007 33.7145L33.9386 33.9535L33.9583 34.0795L33.9653 34.1939C33.9297 34.221 33.9127 34.2413 33.9144 34.255C33.9147 34.2575 33.9211 34.268 33.9336 34.2866L33.9824 34.2693L33.9808 34.2865L34.0051 34.359L34.0063 34.3683C34.0086 34.3869 34.0012 34.4074 33.9838 34.4297C33.9665 34.452 33.9474 34.4657 33.9267 34.4707L33.855 34.4871L33.7525 34.5584L33.7025 34.5362L33.7052 34.4981L33.7176 34.387L33.6883 34.2451L33.6968 34.2233L33.7359 34.2185L33.7331 34.1961L33.7251 34.1631L33.696 34.1119L33.6807 34.0363L33.6576 33.9731L33.6571 33.9694L33.6507 33.9191L33.6469 33.8592C33.6511 33.8523 33.6553 33.8455 33.6594 33.8387C33.6647 33.8305 33.6708 33.8191 33.6778 33.8043C33.686 33.7895 33.6944 33.7714 33.703 33.7502L33.716 33.7033L33.7099 33.6851C33.6516 33.6923 33.6208 33.6829 33.6175 33.6569L33.607 33.5146L33.5782 33.3764C33.5803 33.3636 33.5869 33.3508 33.5979 33.3381L33.591 33.2842L33.564 33.2648L33.5509 33.2211L33.5345 33.1211L33.4834 33.0462C33.4864 33.0005 33.5015 32.9602 33.5286 32.9254L33.6361 32.8498L33.6993 32.7966C33.7353 32.8022 33.7604 32.8111 33.7745 32.8232C33.7899 32.8352 33.7996 32.8567 33.8035 32.8877L33.8049 32.8988L33.8113 32.949C33.8171 32.9949 33.8299 33.0166 33.8498 33.0142L33.8572 33.0133L33.9458 32.9513L34.0343 32.9045L34.1833 32.7973L34.2325 32.7686L34.2768 32.7745L34.3572 32.7381C34.4037 32.7172 34.4394 32.7053 34.4642 32.7022L34.5451 32.6998C34.5743 32.7314 34.597 32.7463 34.6131 32.7443C34.6155 32.7427 34.6172 32.7419 34.6185 32.7417C34.6196 32.7403 34.6213 32.7395 34.6238 32.7392L34.6638 32.7116C34.6731 32.7054 34.6802 32.702 34.6852 32.7014C34.7162 32.6975 34.7475 32.7107 34.779 32.7408C34.8018 32.7619 34.8144 32.7818 34.8168 32.8004ZM35.3037 31.6615C35.3072 31.6888 35.3026 31.7076 35.2901 31.718L35.1667 31.8333L35.1196 31.894L35.0295 31.9731C34.9698 32.0296 34.9332 32.0586 34.9196 32.0603C34.9134 32.0611 34.9061 32.0582 34.8977 32.0517C34.8904 32.0438 34.8862 32.0355 34.8851 32.0268C34.8815 31.9983 34.8862 31.9757 34.8992 31.9589L35.0677 31.753L35.1526 31.6027C35.1666 31.5934 35.1828 31.5876 35.2014 31.5854C35.2263 31.5823 35.2485 31.5884 35.268 31.6036C35.2887 31.6174 35.3006 31.6367 35.3037 31.6615ZM35.317 32.6612C35.3 32.7162 35.2925 32.7662 35.2945 32.8113L35.3066 32.9968L35.2793 33.0644C35.2796 33.0669 35.2793 33.0695 35.2784 33.0721C35.2787 33.0746 35.2785 33.0778 35.2777 33.0816C35.2797 33.0978 35.2975 33.1132 35.3308 33.128L35.3307 33.1866L35.3764 33.5474L35.4058 33.8385L35.4474 33.9581L35.4554 34.0213L35.4789 34.1469C35.475 34.1663 35.4406 34.2077 35.3755 34.2711L35.2917 34.3551C35.2789 34.3731 35.2613 34.3835 35.2389 34.3862C35.2228 34.3882 35.2079 34.385 35.1943 34.3766C35.1806 34.3682 35.173 34.3585 35.1716 34.3473C35.1675 34.3151 35.1727 34.276 35.187 34.2301L35.1951 34.1744L35.1741 34.1581L35.1624 33.8421L35.1696 33.8091L35.217 33.7957L35.2095 33.7362C35.2046 33.6977 35.1979 33.6696 35.1893 33.6518C35.1808 33.6339 35.1621 33.611 35.1334 33.5831L35.1293 33.5213L35.1279 33.5101L35.1202 33.4789C35.115 33.438 35.1178 33.4005 35.1286 33.3664L35.0985 33.338L35.0893 33.2353C35.1054 33.2232 35.1127 33.211 35.1111 33.1986L35.1034 33.1674L35.0484 33.1666L35.0414 33.1108L35.0387 33.0601L35.0291 32.9839C35.0248 32.9504 35.018 32.926 35.0085 32.9108C35.0002 32.8955 34.9831 32.88 34.9572 32.8643C34.9678 32.8189 34.9996 32.7765 35.0526 32.7373L35.2183 32.6129C35.2523 32.6125 35.2852 32.6286 35.317 32.6612ZM37.6383 33.648C37.6403 33.6641 37.639 33.6787 37.6344 33.6919L37.6054 33.7616L37.5371 33.9231L37.4577 33.9385L37.4127 33.9857C37.4029 33.9982 37.3846 34.008 37.3578 34.0151L37.0311 34.1215L36.9814 34.1466L36.8609 34.1501L36.6915 34.1861L36.4966 34.1989L36.4426 34.2055C36.4127 34.1878 36.3944 34.1775 36.3877 34.1745L36.1971 34.1319L36.1283 34.0818L35.9968 34.0131L35.8837 33.8967L35.8425 33.8696C35.8536 33.838 35.8577 33.8105 35.8547 33.7869C35.8535 33.777 35.85 33.7698 35.8444 33.7655L35.7841 33.6917L35.7595 33.5871L35.7449 33.502C35.7413 33.4734 35.7433 33.4348 35.751 33.386C35.7626 33.309 35.7743 33.2622 35.7861 33.2456L35.8439 33.1497L35.8691 33.0653L35.9459 32.9708L36.0251 32.8345L36.1029 32.7776L36.2132 32.679L36.2864 32.6152L36.312 32.5931L36.3664 32.5751L36.5289 32.5002L36.6591 32.4691L36.7349 32.4257L36.7735 32.4171C36.8368 32.4093 36.8944 32.4369 36.9465 32.4997C36.9698 32.4943 36.9855 32.4791 36.9937 32.4542L37.0493 32.4908L37.1229 32.5195L37.2985 32.6527C37.3215 32.6751 37.3392 32.6949 37.3515 32.7123C37.3648 32.7283 37.3777 32.7456 37.3902 32.7642C37.4038 32.7827 37.4159 32.8032 37.4263 32.8259C37.438 32.8484 37.455 32.8828 37.4772 32.9292L37.498 32.9738L37.4803 32.9836L37.4059 32.9776L37.3292 33.0136L37.2663 33.01L37.1998 33.0371L37.0677 33.0383L36.944 33.0611L36.8109 33.0549L36.5992 33.0848L36.4945 33.0939L36.2475 33.1584L36.1559 33.1659L36.0341 33.2188L35.9906 33.2336L35.9888 33.2791C35.9903 33.3105 35.9886 33.3321 35.9838 33.344C35.979 33.3559 35.967 33.3706 35.9478 33.3881L35.956 33.423C36.0009 33.4489 36.025 33.4655 36.0284 33.4726L36.1009 33.6564L36.131 33.6999C36.1201 33.7138 36.1153 33.7258 36.1166 33.7357C36.1166 33.7357 36.1167 33.7363 36.1168 33.7375C36.1182 33.7386 36.1197 33.7403 36.1213 33.7427L36.1948 33.7562L36.2174 33.8007C36.2354 33.8426 36.2549 33.8672 36.276 33.8747L36.3816 33.9032L36.4243 33.9716C36.4428 33.9782 36.4716 33.9815 36.5107 33.9818L36.5428 34.0269L36.6015 34.0272L36.7688 34.0651L36.8995 34.0225L37.2458 33.9212L37.3162 33.8653L37.4261 33.7781L37.5084 33.6376C37.5231 33.6143 37.5423 33.6013 37.5658 33.5984C37.6092 33.593 37.6334 33.6095 37.6383 33.648ZM37.0881 32.8261C37.0855 32.8062 37.0573 32.7675 37.0034 32.7099L36.8632 32.6328L36.8148 32.5934L36.7529 32.5973L36.61 32.6036L36.5775 32.6152L36.5031 32.6697L36.4038 32.7065L36.2797 32.7709L36.2318 32.7957L36.1836 32.8924C36.1497 32.923 36.1312 32.9417 36.1283 32.9483L36.1237 32.9716L36.3547 32.96L36.3803 32.9531L36.4214 32.9348L36.4636 32.939L36.5762 32.9478L36.5818 32.9471L36.7036 32.9094L36.7415 32.8953L36.7767 32.9344L36.8195 32.9291L36.979 32.8754L37.047 32.8746C37.0775 32.867 37.0912 32.8509 37.0881 32.8261ZM39.3742 33.2675C39.3805 33.3171 39.3764 33.3597 39.3621 33.3955C39.3489 33.4312 39.33 33.4505 39.3052 33.4536C39.3002 33.4542 39.2875 33.4532 39.267 33.4507L39.2482 33.4965L39.2263 33.5918L39.1541 33.6932L39.1219 33.752L39.0702 33.7622L38.9083 33.8709L38.8296 33.892L38.6997 33.9553L38.5892 33.9481L38.4304 34.0074C38.4192 34.0088 38.3569 34.0045 38.2435 33.9946C38.19 33.9898 38.1557 33.9827 38.1407 33.9733L38.0622 33.9357L37.9644 33.8949C37.9228 33.8748 37.8872 33.8471 37.8575 33.8117C37.8289 33.775 37.8125 33.7404 37.8084 33.7082C37.8059 33.6884 37.8236 33.6591 37.8616 33.6204C37.8993 33.5805 37.9422 33.5456 37.9901 33.5158L38.0378 33.5646L38.0939 33.724L38.1661 33.7566L38.2847 33.827L38.3389 33.8373L38.4455 33.8733L38.5144 33.8648L38.56 33.8667L38.6478 33.8294L38.7985 33.7957L38.8699 33.7472L38.9392 33.7122C38.9816 33.6793 39.0192 33.618 39.0519 33.5283C39.0845 33.4373 39.0964 33.3572 39.0876 33.2877C39.0843 33.2617 39.0733 33.2397 39.0547 33.2219L38.9691 33.1285L38.9446 33.0843L38.8971 33.0675L38.8767 33.1003L38.8353 33.1016L38.7329 33.0991L38.6157 33.1136L38.5859 33.1173L38.5265 33.0509C38.5042 33.0839 38.4856 33.1057 38.4705 33.1164C38.4553 33.1258 38.4253 33.1371 38.3803 33.1502L38.3166 33.1694L38.277 33.1554L38.2305 33.1611L38.1774 33.1299L38.1174 33.1486L38.0562 33.1279L37.9729 33.1117C37.9406 33.1056 37.9109 33.0847 37.8836 33.049C37.8564 33.0133 37.8403 32.9757 37.8353 32.936C37.8276 32.8752 37.8405 32.8081 37.874 32.7347C37.9076 32.6613 37.9586 32.5914 38.027 32.525C38.0797 32.4732 38.1436 32.4206 38.2187 32.3672C38.2938 32.3139 38.3653 32.2711 38.433 32.2388C38.502 32.2063 38.5594 32.1873 38.6053 32.1816C38.6189 32.1799 38.6677 32.1871 38.7517 32.2032L38.808 32.2151C38.8905 32.1898 38.9441 32.1757 38.9689 32.1726C39.0037 32.1683 39.0317 32.1705 39.0529 32.1792C39.0754 32.1878 39.0877 32.2001 39.0897 32.2163C39.0918 32.2324 39.0767 32.2575 39.0445 32.2917C39.0134 32.3246 38.9727 32.3567 38.9225 32.388L38.8681 32.4212L38.8193 32.4235L38.7258 32.4312L38.6527 32.4213L38.6128 32.3601L38.5868 32.3634L38.5594 32.4007L38.5035 32.4076L38.4496 32.4143L38.3747 32.4349L38.3151 32.4271L38.2882 32.4531L38.1778 32.5366C38.1038 32.6188 38.0705 32.6891 38.0779 32.7473C38.0831 32.7883 38.0989 32.8134 38.1252 32.8227L38.2551 32.8634L38.2949 32.8792L38.3006 32.9239L38.3623 32.9484L38.4164 32.8831L38.4466 32.8832L38.7564 32.8223L38.9095 32.8374L38.977 32.8177L39.0718 32.8646L39.2112 32.9211C39.2395 32.9352 39.2674 32.9714 39.2949 33.0297L39.3162 33.0781C39.3484 33.1535 39.3677 33.2166 39.3742 33.2675Z" fill="#FFB6C1"/>
<path d="M31.3999 16.9122C31.3999 16.2048 30.945 15.5642 30.1787 15.0618C30.1233 14.8617 30.0303 14.6688 29.9044 14.4849C29.981 14.3068 30.027 14.1169 30.0405 13.9234C30.5363 13.4831 30.8198 12.966 30.8198 12.4077C30.8198 10.7552 28.3456 9.46094 25.1867 9.46094C22.0966 9.46094 19.6629 10.7 19.5588 12.301C19.0634 12.7412 18.7803 13.2574 18.7803 13.8153C18.7803 14.1754 18.8981 14.5184 19.1144 14.8346C19.0222 15.046 18.9742 15.274 18.9736 15.5047C18.9736 16.0903 19.2855 16.6302 19.8272 17.084C19.054 17.583 18.5999 18.2031 18.5999 18.8826C18.5999 19.1697 18.6822 19.446 18.8337 19.7071C19.1238 21.1392 21.7702 22.2609 24.9935 22.2609C28.2167 22.2609 30.8633 21.1392 31.1532 19.7071C31.3047 19.4458 31.3871 19.1695 31.3871 18.8826C31.3871 18.5468 31.2742 18.2264 31.0688 17.9269C31.2829 17.6118 31.3999 17.2704 31.3999 16.9122ZM30.1105 13.2476L30.1088 13.2397C30.1122 13.2391 30.1149 13.2374 30.1184 13.2367L30.1105 13.2476ZM25.722 9.9708C30.0207 9.9708 31.037 12.8482 29.9104 12.8482C29.3301 12.8482 30.0209 13.6736 29.5686 13.6736C28.6771 13.6736 29.7903 17.558 28.8207 17.558C27.6373 17.558 29.3222 14.0741 28.3163 14.0741C27.8427 14.0741 27.6733 14.7546 27.1385 14.7546C26.5529 14.7546 26.4968 13.9868 26.0879 13.9868C25.9264 13.9868 25.71 14.1065 25.3845 14.4399C24.9804 14.854 24.5565 15.1209 24.2105 15.1209C23.8549 15.1209 23.5814 14.8391 23.4954 14.1453C23.4649 13.8989 23.3685 13.8125 23.2522 13.8125C23.0404 13.8125 22.7626 14.099 22.6959 14.2287C21.9656 15.6482 23.2804 18.8263 22.1642 18.8263C20.858 18.8263 22.576 14.0888 21.725 14.0888C21.4986 14.0888 21.2117 14.3712 20.9883 14.3712C20.9482 14.3719 20.9087 14.3611 20.8744 14.3403C20.0721 13.849 21.6452 12.435 20.8637 12.435C19.1082 12.4352 20.9386 9.9708 25.722 9.9708ZM29.6123 15.0266C29.6119 15.008 29.6114 14.9893 29.6108 14.9707C29.632 14.944 29.6516 14.9174 29.671 14.8905C29.7725 15.087 29.8269 15.2926 29.8269 15.5045C29.8269 15.7253 29.7668 15.9394 29.6569 16.1438C29.6516 15.9486 29.6428 15.7457 29.633 15.535C29.63 15.4759 29.6271 15.4112 29.6241 15.344C29.629 15.3037 29.6337 15.2636 29.6337 15.2229C29.6333 15.1569 29.6261 15.0911 29.6123 15.0266ZM24.4134 16.3493C23.9102 16.3491 23.4077 16.3124 22.9098 16.2396C22.8941 16.0521 22.8835 15.8643 22.878 15.6762C23.3625 15.7462 23.8773 15.7858 24.4134 15.7858C25.9313 15.7858 27.2896 15.4833 28.2114 15.0063C28.1856 15.2021 28.1557 15.3973 28.1216 15.5917C27.1759 16.0574 25.8675 16.3493 24.4134 16.3493ZM28.0433 17.4072C27.1242 17.7984 25.9249 18.038 24.6069 18.038C24.0625 18.038 23.5398 17.9951 23.0466 17.92C23.0436 17.7321 23.0336 17.5443 23.0165 17.357C23.543 17.4357 24.0746 17.4752 24.6069 17.475C25.9008 17.475 27.0769 17.2538 27.9682 16.8937C27.9701 17.0823 27.9914 17.2559 28.0433 17.4072ZM22.961 14.6976C22.9881 14.5969 23.0199 14.5014 23.063 14.418C23.0724 14.402 23.0897 14.3808 23.1108 14.3584C23.1375 14.5084 23.1739 14.6377 23.2164 14.7522C23.13 14.7352 23.0453 14.7168 22.961 14.6976ZM25.4607 14.9364C25.5387 14.8668 25.6136 14.7966 25.6797 14.7286C25.8903 14.5127 26.01 14.4378 26.0633 14.4122C26.0962 14.4493 26.1416 14.5129 26.1743 14.559C26.2385 14.649 26.3206 14.7627 26.4279 14.8677C26.1067 14.9053 25.784 14.9283 25.4607 14.9364ZM20.1542 12.6799C20.2722 12.7533 20.4153 12.803 20.5824 12.8282C20.5642 12.8674 20.5459 12.9058 20.5301 12.9393C20.474 13.0567 20.4059 13.2007 20.3483 13.357C20.1316 13.0978 20.0006 12.8175 19.9731 12.524C20.0241 12.5831 20.0838 12.6362 20.1542 12.6799ZM19.6093 12.8284C19.6121 12.8384 19.6138 12.8489 19.6166 12.8591C19.4673 13.072 19.386 13.2986 19.386 13.5337C19.386 14.2917 20.2233 14.9609 21.5044 15.3692C21.4826 15.5486 21.4585 15.7293 21.4355 15.8949C20.0812 15.437 19.1927 14.6769 19.1927 13.8153C19.1927 13.4646 19.3433 13.1318 19.6093 12.8284ZM19.3862 15.5047C19.3862 15.4027 19.4003 15.3026 19.4248 15.2041C19.4771 15.2564 19.5315 15.308 19.5895 15.3581C19.6719 15.9806 20.318 16.5349 21.3026 16.9204C21.2827 17.0952 21.267 17.2706 21.2554 17.4462C20.1135 16.9814 19.3862 16.2842 19.3862 15.5047ZM21.2595 18.1822C21.0767 18.0301 20.9235 17.8684 20.8089 17.698C20.9465 17.763 21.0933 17.8225 21.2437 17.8801C21.245 17.9864 21.2499 18.0873 21.2595 18.1822ZM19.792 18.2285C20.0081 19.3831 22.167 20.2906 24.8002 20.2906C26.4096 20.2906 27.8378 19.9501 28.7564 19.4223C28.9978 19.3451 29.2347 19.2544 29.466 19.1508C28.7276 20.0158 26.8908 20.6471 24.8002 20.6471C22.0821 20.6471 19.7858 19.5817 19.7858 18.32C19.7858 18.2889 19.7894 18.2588 19.792 18.2285ZM24.9935 21.4919C21.7514 21.4919 19.0124 20.2968 19.0124 18.8828C19.0124 18.5579 19.1586 18.2449 19.4208 17.9548C19.3898 18.074 19.3738 18.1966 19.3732 18.3198C19.3732 19.8565 21.757 21.0599 24.8 21.0599C27.53 21.0599 29.7275 20.0907 30.151 18.7819C30.3983 18.6228 30.6131 18.4485 30.7921 18.2626C30.9094 18.4623 30.9743 18.6697 30.9743 18.8826C30.9745 20.2968 28.2355 21.4919 24.9935 21.4919ZM25.7668 19.446C24.6483 19.446 23.6172 19.2724 22.769 18.9809L22.7692 18.9805C22.8832 18.8542 22.9516 18.6921 22.9941 18.5058C23.7892 18.7429 24.7404 18.8826 25.7668 18.8826C28.5427 18.8826 30.794 17.8742 30.794 16.6304C30.794 16.2816 30.6169 15.9514 30.3008 15.6566C30.7368 16.0267 30.9873 16.4551 30.9873 16.912C30.9873 18.3113 28.6498 19.446 25.7668 19.446Z" fill="#FFB6C1"/>
<path d="M7.54254 36.4415C7.63424 36.3633 7.74279 36.3139 7.85879 36.2879C8.04721 36.2457 8.25562 36.2581 8.46755 36.2844C8.89142 36.337 9.33534 36.4413 9.61766 36.3548C9.88264 36.2737 10.0442 36.1319 10.1278 35.9705C10.1638 35.901 10.1853 35.8272 10.1934 35.7519C9.66803 35.5481 8.9854 35.5566 8.51179 35.8332C8.92494 35.4576 9.53039 35.2982 10.1508 35.4456L10.1765 35.5183C10.1708 35.4957 10.164 35.4734 10.1562 35.4515C10.0332 35.1057 9.64092 34.81 9.04218 34.8995C8.76708 34.9406 8.37438 35.1061 8.06274 35.3981C7.79316 35.6507 7.5823 35.9946 7.54256 36.4415L7.54254 36.4415ZM9.15131 34.1993C9.25019 34.2104 9.34248 34.2454 9.42539 34.2973C9.57029 34.388 9.69241 34.5245 9.80763 34.6715C10.0381 34.9656 10.2486 35.3023 10.4738 35.4201C10.6871 35.5318 10.8728 35.5426 11.0231 35.4947C11.0874 35.4742 11.1473 35.4419 11.1996 35.3996C10.9997 34.9533 10.5737 34.5435 10.1099 34.4247C10.5989 34.4456 11.0716 34.7165 11.3643 35.1854C11.4967 34.8996 11.4373 34.4858 11.0176 34.1787C10.8231 34.0364 10.4775 33.8979 10.1036 33.8876C9.78619 33.8788 9.44957 33.9587 9.15133 34.1993L9.15131 34.1993ZM9.59764 37.6796C9.97025 37.7732 10.3097 37.7051 10.5939 37.5646C10.9286 37.399 11.1834 37.1288 11.2994 36.9185C11.5498 36.4647 11.4281 36.0647 11.1868 35.8608C11.1201 36.4084 10.8063 36.8515 10.3716 37.0747C10.742 36.7732 10.9546 36.2234 10.9465 35.7352C10.8811 35.7186 10.8131 35.7143 10.7461 35.7225C10.5895 35.7418 10.4255 35.8295 10.2794 36.0199C10.1252 36.2209 10.0771 36.6141 9.99282 36.9771C9.9507 37.1586 9.89797 37.3333 9.80499 37.4761C9.75177 37.5579 9.68265 37.6281 9.59765 37.6796L9.59764 37.6796Z" fill="#FFB6C1"/>
<path d="M43.7137 31.9531C43.6184 31.8792 43.5076 31.8349 43.3905 31.8144C43.2003 31.7809 42.9927 31.803 42.7822 31.8391C42.3614 31.9114 41.9229 32.0362 41.6368 31.9629C41.3682 31.8942 41.2 31.7601 41.1088 31.6027C41.0696 31.535 41.0446 31.4623 41.0329 31.3875C41.548 31.1594 42.2302 31.1362 42.7165 31.3905C42.2859 31.0345 41.6735 30.9034 41.0609 31.0795L41.0386 31.1533C41.0433 31.1305 41.049 31.1079 41.0558 31.0856C41.1621 30.7345 41.5398 30.4209 42.1422 30.4825C42.4189 30.5108 42.8191 30.6578 43.1443 30.935C43.4257 31.1748 43.6527 31.5085 43.7137 31.9531L43.7137 31.9531ZM41.9998 29.7881C41.9015 29.8039 41.811 29.8431 41.7307 29.8988C41.5902 29.9961 41.4748 30.1381 41.3667 30.2903C41.1505 30.5947 40.9563 30.9408 40.737 31.0691C40.5292 31.1905 40.3442 31.2099 40.1919 31.169C40.1266 31.1516 40.0653 31.1221 40.011 31.0823C40.1894 30.6272 40.5954 30.198 41.053 30.0578C40.5656 30.1014 40.1063 30.3939 39.8362 30.876C39.6904 30.5966 39.73 30.1806 40.1346 29.8543C40.322 29.7031 40.6607 29.5487 41.0337 29.521C41.3503 29.4975 41.6903 29.5616 41.9997 29.7881L41.9998 29.7881ZM41.72 33.2853C41.3522 33.3961 41.0099 33.3439 40.7193 33.2167C40.3771 33.0668 40.1097 32.8088 39.9838 32.6041C39.712 32.1624 39.8145 31.7573 40.0458 31.5423C40.1385 32.0862 40.4732 32.5143 40.918 32.717C40.5337 32.433 40.2951 31.8938 40.2798 31.4057C40.3444 31.3861 40.4121 31.3786 40.4794 31.3838C40.6368 31.3957 40.8048 31.4758 40.9598 31.6591C41.1234 31.8527 41.1902 32.2433 41.2917 32.602C41.3424 32.7813 41.4035 32.9534 41.5031 33.0917C41.5602 33.1709 41.6326 33.2378 41.72 33.2853L41.72 33.2853Z" fill="#FFB6C1"/>
</svg>
